<svg width="250" height="787" viewBox="0 0 250 787" fill="none" xmlns="http://www.w3.org/2000/svg">
<g filter="url(#filter0_d_505_142)">
<g filter="url(#filter1_d_505_142)">
<path d="M0 13.5107C0 6.04897 7.16344 0 16 0H234C242.837 0 250 6.04896 250 13.5107V773.489C250 780.951 242.837 787 234 787H16C7.16345 787 0 780.951 0 773.489V13.5107Z" fill="white"/>
</g>
<path fill-rule="evenodd" clip-rule="evenodd" d="M201 126H49V125H201V126Z" fill="#F3F3F3"/>
<g clip-path="url(#clip0_505_142)">
<path d="M52.3775 107.792C51.7993 107.802 51.2224 107.736 50.6615 107.595C50.2525 107.492 49.8671 107.311 49.5266 107.061C49.2536 106.861 49.0371 106.593 48.8983 106.284C48.7657 105.993 48.6988 105.677 48.7024 105.358C48.6984 105.085 48.7371 104.814 48.8173 104.553C48.89 104.305 48.9873 104.065 49.1078 103.837C49.2254 103.6 49.3633 103.374 49.5199 103.161C49.6685 102.958 49.8306 102.768 49.9927 102.579L50.5467 102.775C50.4348 103.051 50.3467 103.336 50.2832 103.627C50.223 103.907 50.1913 104.192 50.1887 104.479C50.1789 104.751 50.2353 105.02 50.353 105.265C50.4707 105.51 50.6461 105.723 50.8642 105.885C51.4005 106.256 52.0441 106.439 52.695 106.406C53.3762 106.412 54.056 106.341 54.7216 106.196C55.2922 106.077 55.8339 105.848 56.3159 105.52C56.6104 105.286 56.831 104.971 56.951 104.614C57.0958 104.202 57.1667 103.767 57.1604 103.33C57.1791 103.096 57.1401 102.862 57.0471 102.648C56.954 102.433 56.8096 102.245 56.6267 102.099C56.0718 101.781 55.4332 101.639 54.7959 101.694H53.0125C52.0527 101.746 51.0943 101.57 50.2157 101.18C49.9296 101.02 49.6951 100.782 49.5395 100.493C49.3839 100.204 49.3139 99.8775 49.3375 99.5504C49.3394 99.3179 49.3876 99.0881 49.4793 98.8744C49.5737 98.6366 49.6938 98.4099 49.8374 98.1983C49.9896 97.9816 50.1543 97.774 50.3305 97.5763C50.5072 97.3879 50.6944 97.2095 50.8912 97.0423C50.291 96.684 49.7912 96.1792 49.4388 95.5752C49.0328 94.8399 48.8343 94.008 48.8646 93.1684C48.8563 92.5129 48.9709 91.8617 49.2023 91.2484C49.4049 90.7091 49.7199 90.2191 50.1264 89.8111C50.5329 89.4031 51.0217 89.0865 51.56 88.8823C52.1286 88.6619 52.7338 88.5518 53.3435 88.5577C53.8183 88.5534 54.2928 88.5873 54.7622 88.6592C55.1712 88.7235 55.5752 88.8162 55.9714 88.9363C56.4983 88.9363 57.0523 88.8687 57.6468 88.8079C58.1711 88.7528 58.692 88.6693 59.2073 88.5577L58.9641 89.6868C58.6609 89.7883 58.3488 89.8608 58.0319 89.9031C57.6897 89.9549 57.3443 89.982 56.9983 89.9842C57.2045 90.3558 57.3655 90.7507 57.4779 91.1606C57.6216 91.7419 57.6875 92.3398 57.6738 92.9386C57.6852 93.6019 57.5587 94.2603 57.3023 94.8721C57.0722 95.3873 56.7361 95.848 56.3159 96.2242C55.889 96.6051 55.3874 96.8929 54.8432 97.0693C54.2636 97.2609 53.6567 97.3568 53.0463 97.3532C52.8301 97.3532 52.5734 97.3532 52.2694 97.3532C52.0408 97.3482 51.8138 97.3141 51.5938 97.2518C51.4902 97.4692 51.4066 97.6954 51.3439 97.9279C51.2616 98.2045 51.2184 98.4912 51.2155 98.7797C51.2091 98.9297 51.2528 99.0776 51.3396 99.2C51.4265 99.3224 51.5515 99.4124 51.6951 99.4558C52.072 99.5799 52.4672 99.6393 52.8639 99.6315H55.2553C55.8725 99.6216 56.4888 99.6806 57.0928 99.8073C57.5277 99.893 57.9369 100.078 58.2886 100.348C58.6005 100.58 58.8358 100.9 58.9641 101.268C59.1349 101.792 59.1955 102.346 59.142 102.896C59.0885 103.445 58.9222 103.977 58.6534 104.459C58.2976 105.101 57.8177 105.667 57.2415 106.122C56.5925 106.64 55.862 107.047 55.0797 107.325C54.2145 107.643 53.299 107.801 52.3775 107.792ZM53.1273 96.231C53.7579 96.2609 54.3832 96.1033 54.9243 95.778C55.191 95.5441 55.3717 95.2276 55.4377 94.8789C55.578 94.2582 55.637 93.6219 55.6134 92.9859C55.617 92.5546 55.5625 92.1248 55.4512 91.7082C55.3543 91.3405 55.1893 90.9942 54.9648 90.6873C54.7649 90.407 54.5038 90.1758 54.2015 90.0113C53.8922 89.8447 53.5461 89.7587 53.1949 89.7611C52.627 89.7281 52.0629 89.8722 51.5803 90.1735C51.1344 90.498 50.9047 91.458 50.9047 93.0468C50.9032 93.4534 50.9578 93.8584 51.0669 94.2501C51.1625 94.6123 51.3153 94.957 51.5195 95.271C51.6972 95.5506 51.9264 95.7938 52.1951 95.9876C52.4696 96.1599 52.79 96.2448 53.1138 96.231H53.1273Z" fill="#002D43"/>
<path d="M65.9695 88.5645C66.4571 88.5658 66.9419 88.6387 67.4084 88.7808C67.8762 88.9152 68.311 89.1455 68.6852 89.4569C69.1107 89.8346 69.4554 90.2945 69.6986 90.809C70.0278 91.4458 70.2558 92.1301 70.3741 92.8372V92.9724C70.2607 93.1025 70.1259 93.2123 69.9755 93.2969C69.7619 93.4119 69.535 93.5004 69.3 93.5606C68.9684 93.6465 68.6324 93.7142 68.2934 93.7634C67.8186 93.8329 67.3406 93.8781 66.8612 93.8986L63.2402 94.1487V94.8248C63.1467 95.8306 63.3839 96.8395 63.9158 97.698C64.1725 98.0059 64.4988 98.248 64.8677 98.4044C65.2367 98.5608 65.6375 98.6269 66.037 98.5972C66.4451 98.5979 66.8523 98.5594 67.253 98.4823C67.6719 98.4079 68.0705 98.3132 68.4555 98.2051C68.8406 98.0969 69.1784 97.9887 69.4891 97.8738C69.7375 97.7852 69.981 97.6836 70.2187 97.5696L70.4957 98.2051C70.1782 98.4146 69.8202 98.631 69.4351 98.8811C69.0279 99.1175 68.6059 99.3275 68.1718 99.5099C67.7098 99.7049 67.2332 99.8631 66.7464 99.9831C66.2475 100.111 65.7345 100.174 65.2196 100.172C64.6322 100.177 64.0487 100.077 63.497 99.8749C62.976 99.6748 62.5121 99.3498 62.1458 98.9285C61.72 98.4328 61.4045 97.852 61.2203 97.2248C60.9813 96.3923 60.8697 95.5285 60.8893 94.6625C60.8661 93.6945 60.9984 92.7289 61.2811 91.8028C61.4907 91.0983 61.8581 90.4509 62.3553 89.9099C62.8069 89.4613 63.3577 89.1255 63.9631 88.9296C64.6064 88.695 65.2849 88.5715 65.9695 88.5645ZM64.1252 90.187C63.9829 90.2972 63.8674 90.4382 63.7874 90.5994C63.6752 90.8153 63.5846 91.0417 63.5172 91.2755C63.4396 91.5628 63.3765 91.8539 63.3281 92.1476C63.2818 92.4678 63.2593 92.7909 63.2605 93.1144L67.9286 92.9183C67.8718 92.5399 67.7929 92.1652 67.6922 91.7961C67.6001 91.4435 67.4567 91.1063 67.2666 90.7955C67.0962 90.5084 66.8657 90.2616 66.591 90.0721C66.2927 89.8822 65.9446 89.7857 65.5912 89.7949C65.3301 89.7952 65.0698 89.8224 64.8143 89.8761C64.5662 89.9326 64.3319 90.0384 64.1252 90.187Z" fill="#002D43"/>
<path d="M77.88 88.5645C78.3654 88.5653 78.8481 88.6382 79.3122 88.7808C79.7826 88.9136 80.22 89.144 80.5957 89.4569C81.0171 89.8383 81.3611 90.2974 81.609 90.809C81.9383 91.4458 82.1662 92.1301 82.2846 92.8372V92.9724C82.1686 93.1025 82.0316 93.2122 81.8793 93.2969C81.6662 93.4131 81.4391 93.5017 81.2037 93.5606C80.8746 93.6473 80.5408 93.715 80.2039 93.7634C79.7291 93.8326 79.2511 93.8777 78.7717 93.8986L75.144 94.1487V94.8248C75.0539 95.8304 75.2909 96.8381 75.8195 97.698C76.0776 98.006 76.4052 98.2481 76.7752 98.4044C77.1452 98.5608 77.547 98.6268 77.9475 98.5972C78.3556 98.5979 78.7628 98.5594 79.1635 98.4823C79.5824 98.4079 79.981 98.3132 80.366 98.2051C80.7511 98.0969 81.0889 97.9887 81.3996 97.8738C81.6479 97.7852 81.8915 97.6836 82.1292 97.5696L82.4062 98.2051C82.0887 98.4146 81.7306 98.631 81.3456 98.8811C80.9367 99.1189 80.5124 99.3289 80.0755 99.5099C79.6155 99.7039 79.1412 99.8621 78.6569 99.9831C78.158 100.111 77.645 100.174 77.1301 100.172C76.5427 100.177 75.9592 100.077 75.4074 99.8749C74.8858 99.676 74.4216 99.3508 74.0563 98.9285C73.6327 98.4323 73.3195 97.8515 73.1376 97.2248C72.896 96.3927 72.7821 95.5288 72.7998 94.6625C72.7799 93.6946 72.9122 92.7296 73.1916 91.8028C73.4062 91.099 73.7755 90.4522 74.2725 89.9099C74.7192 89.4617 75.2655 89.1258 75.8668 88.9296C76.5125 88.695 77.1931 88.5715 77.88 88.5645ZM76.0222 90.187C75.884 90.2996 75.7712 90.4402 75.6912 90.5994C75.5761 90.814 75.4855 91.0407 75.421 91.2755C75.3401 91.5621 75.277 91.8533 75.2318 92.1476C75.1833 92.4676 75.1585 92.7907 75.1575 93.1144L79.8323 92.9183C79.7755 92.5399 79.6966 92.1652 79.5959 91.7961C79.4979 91.4455 79.3548 91.1092 79.1703 90.7955C78.9994 90.5088 78.7691 90.2621 78.4947 90.0721C78.1994 89.8812 77.8531 89.7846 77.5017 89.7949C77.2406 89.7948 76.9802 89.822 76.7248 89.8761C76.4722 89.9318 76.2333 90.0375 76.0222 90.187Z" fill="#002D43"/>
<path d="M87.5949 99.9966H85.3926V81.6552L87.5949 81.0941V92.587C87.5949 92.7223 87.5949 92.8642 87.5949 93.0062C87.5949 93.1482 87.5949 93.2969 87.5949 93.4254C87.5949 93.5538 87.5949 93.6552 87.5949 93.7228C87.8921 93.3848 88.2096 93.0468 88.5542 92.6479L89.5675 91.5459L90.5133 90.5386C90.8105 90.2276 91.074 89.9707 91.2902 89.7611C91.5881 89.4492 91.9188 89.1704 92.2765 88.9296C92.6574 88.731 93.0836 88.6355 93.5128 88.6524C93.6749 88.6524 93.8573 88.6524 94.0735 88.6862C94.2347 88.695 94.3928 88.734 94.5396 88.8011V89.4772H94.472C94.2446 89.4721 94.0174 89.4971 93.7965 89.5515C93.5929 89.6006 93.3956 89.6732 93.2088 89.7679C93.0041 89.8763 92.8097 90.0031 92.6278 90.1465C92.4319 90.2952 92.2224 90.4777 91.9928 90.6873C91.8847 90.782 91.7225 90.9375 91.5064 91.1606C91.2902 91.3837 91.0672 91.6 90.8308 91.8366L89.9931 92.6884C90.1823 92.9792 90.3917 93.3645 90.6146 93.7701C90.8376 94.1758 91.0943 94.6558 91.3577 95.1223C91.6212 95.5887 91.9117 96.0755 92.2089 96.5487C92.4918 96.9956 92.808 97.4204 93.1547 97.8197C93.4561 98.1735 93.8038 98.485 94.1883 98.7459C94.5124 98.9697 94.8957 99.0921 95.2895 99.0975H95.4516V99.8344C95.1752 99.9311 94.8901 100.001 94.6004 100.044C94.2879 100.097 93.9716 100.124 93.6546 100.125C93.0915 100.134 92.5426 99.9473 92.1008 99.5977C91.6196 99.2095 91.1964 98.7541 90.8443 98.2456C90.4369 97.6424 90.0669 97.0148 89.7364 96.3662C89.3648 95.6901 88.9663 94.9397 88.5272 94.2366L87.5949 95.1628V99.9966Z" fill="#002D43"/>
<path d="M104.47 96.4811C104.483 96.9718 104.386 97.4592 104.186 97.9076C103.996 98.3016 103.738 98.6587 103.423 98.9622C103.243 99.1305 103.053 99.2885 102.856 99.4355C102.645 99.5941 102.419 99.7301 102.18 99.8411C101.895 99.9589 101.598 100.047 101.295 100.105C100.935 100.176 100.568 100.21 100.201 100.206C99.5173 100.214 98.836 100.132 98.1739 99.9628C97.5625 99.7983 96.9826 99.5333 96.458 99.1786L97.1336 97.6575C97.3678 97.8062 97.6245 97.9549 97.9037 98.1037C98.1824 98.2559 98.4687 98.3935 98.7617 98.5161C99.0595 98.6394 99.3668 98.7389 99.6804 98.8135C100.001 98.8929 100.33 98.9315 100.66 98.9285C100.979 98.9331 101.298 98.9059 101.612 98.8473C101.855 98.8035 102.085 98.709 102.288 98.5701C102.469 98.4353 102.615 98.2592 102.714 98.0563C102.837 97.7474 102.893 97.4152 102.876 97.0828C102.879 96.9033 102.841 96.7253 102.764 96.5633C102.686 96.4013 102.572 96.2597 102.43 96.1499C102.097 95.8872 101.726 95.6774 101.329 95.5279C100.89 95.3589 100.41 95.1831 99.8898 95.0073C99.3899 94.8333 98.9098 94.6067 98.4577 94.3313C98.0242 94.0823 97.647 93.7462 97.3497 93.3442C97.042 92.8908 96.888 92.3504 96.9106 91.8028C96.8988 91.3821 97.0015 90.9661 97.2079 90.5994C97.4096 90.2583 97.6574 89.9466 97.9442 89.6732C98.7306 88.9358 99.7715 88.5313 100.849 88.5442C101.344 88.5472 101.838 88.5788 102.329 88.6389C102.842 88.702 103.335 88.7696 103.808 88.8417L103.477 90.4575L102.761 90.2952L101.95 90.1465L101.153 90.0451C100.929 90.0201 100.703 90.0065 100.478 90.0045C100.138 89.9966 99.7993 90.0192 99.4642 90.0721C99.267 90.1104 99.079 90.1862 98.9103 90.2952C98.7848 90.3891 98.6906 90.5187 98.6401 90.667C98.5733 90.8696 98.5436 91.0826 98.5522 91.2958C98.5507 91.4618 98.5899 91.6258 98.6665 91.7731C98.743 91.9205 98.8546 92.0467 98.9913 92.1408C99.3337 92.388 99.7089 92.5859 100.106 92.729C100.552 92.9048 101.032 93.0806 101.538 93.2631C102.038 93.4416 102.52 93.668 102.977 93.9392C103.41 94.1969 103.789 94.5368 104.092 94.9397C104.381 95.399 104.514 95.9399 104.47 96.4811Z" fill="#002D43"/>
<path d="M111.091 99.8344C111.065 99.7763 111.049 99.7148 111.043 99.6518C111.03 99.5644 111.03 99.4756 111.043 99.3882C111.067 99.2379 111.099 99.089 111.138 98.942L111.266 98.462L111.408 97.9279C111.516 97.5358 111.651 97.0355 111.827 96.4338L112.692 93.3442L112.408 93.2699C110.984 93.1258 109.549 93.1258 108.125 93.2699C107.27 93.3655 106.409 93.3813 105.551 93.3172L105.112 93.209C104.913 93.178 104.731 93.0812 104.594 92.9341C104.456 92.787 104.372 92.5982 104.355 92.3977C104.298 92.2174 104.298 92.0238 104.355 91.8434V91.7623C104.498 91.3786 104.681 91.0114 104.902 90.667C105.193 90.1735 105.639 89.4569 106.254 88.5172L108.125 85.5966L109.219 83.8794C109.476 83.4738 109.652 83.2034 109.753 83.0073C109.822 82.8862 109.881 82.7596 109.929 82.6287C110.048 82.3551 110.212 82.1037 110.415 81.8851C110.61 81.6489 110.837 81.4418 111.091 81.2699C111.281 81.1843 111.495 81.1629 111.699 81.209C111.912 81.2546 112.101 81.3783 112.228 81.5558C112.356 81.7333 112.413 81.9519 112.388 82.169C112.394 82.198 112.394 82.228 112.388 82.2569C112.277 82.5489 112.134 82.8277 111.962 83.0884C111.674 83.5797 111.167 84.3977 110.442 85.5425C109.564 86.9262 108.76 88.1792 108.03 89.3014C107.301 90.4237 106.862 91.0997 106.713 91.3296L106.679 91.3701C106.672 91.3899 106.672 91.4113 106.679 91.431H106.726H106.909C107.017 91.431 107.193 91.431 107.436 91.431C107.679 91.431 108.003 91.431 108.402 91.431C109.769 91.3376 111.142 91.3716 112.502 91.5324L113.178 91.6406L113.354 91.1808C113.401 91.0254 113.55 90.5724 113.779 89.8287C114.009 89.0851 114.279 88.2062 114.57 87.1989C114.86 86.1915 115.151 85.2924 115.374 84.6096C115.484 84.2187 115.624 83.8368 115.792 83.467C115.955 83.1921 116.245 83.111 116.664 83.2237C116.772 83.2527 116.872 83.3053 116.957 83.3778C117.043 83.4503 117.111 83.5408 117.157 83.6428C117.265 83.8985 117.303 84.1788 117.265 84.4541C117.265 84.6028 117.157 84.9273 117.029 85.4208L116.792 86.2862C116.529 87.28 116.245 88.3144 115.941 89.3217C115.637 90.329 115.414 91.0592 115.265 91.4175L115.049 91.9718L115.617 92.1882C116.292 92.4248 116.556 92.7899 116.421 93.2834C116.396 93.3801 116.351 93.4702 116.288 93.5473C116.225 93.6245 116.146 93.6867 116.056 93.7296C115.865 93.8259 115.645 93.8453 115.441 93.7837L115.144 93.7228C115.043 93.7136 114.941 93.7136 114.84 93.7228H114.563L113.671 96.3392C113.428 97.0896 113.205 97.7589 112.996 98.3673C112.786 98.9758 112.678 99.3544 112.631 99.5234C112.583 99.6909 112.515 99.852 112.428 100.003C112.353 100.101 112.252 100.175 112.138 100.22C111.95 100.316 111.735 100.342 111.53 100.294C111.427 100.255 111.334 100.194 111.258 100.114C111.182 100.035 111.125 99.9389 111.091 99.8344Z" fill="#002D43"/>
<path d="M118.818 100.064V81.7228L121.027 81.1684V100.098L118.818 100.064Z" fill="#002D43"/>
<path d="M129.391 88.6389C129.879 88.6402 130.364 88.7131 130.83 88.8552C131.301 88.9882 131.738 89.2185 132.114 89.5313C132.535 89.9112 132.877 90.3707 133.12 90.8834C133.45 91.5201 133.678 92.2044 133.796 92.9115V93.04C133.683 93.1723 133.548 93.2844 133.397 93.3713C133.183 93.4837 132.957 93.57 132.722 93.6282C132.391 93.72 132.055 93.79 131.715 93.8377C131.317 93.8986 130.844 93.9392 130.29 93.973L126.662 94.2163V94.8924C126.57 95.9003 126.807 96.911 127.338 97.7724C127.594 98.0802 127.921 98.3224 128.29 98.4788C128.659 98.6351 129.059 98.7012 129.459 98.6716C129.867 98.6689 130.274 98.6305 130.675 98.5566C131.094 98.4823 131.492 98.3876 131.877 98.2794C132.262 98.1713 132.607 98.0563 132.911 97.9414C133.159 97.8545 133.403 97.7553 133.641 97.6439L133.918 98.2794C133.6 98.489 133.242 98.7054 132.857 98.9555C132.448 99.1892 132.027 99.3992 131.594 99.5842C131.131 99.7762 130.654 99.9344 130.168 100.057C129.669 100.182 129.156 100.246 128.641 100.247C128.054 100.252 127.471 100.151 126.919 99.9493C126.399 99.7467 125.936 99.4221 125.568 99.0028C125.142 98.5046 124.826 97.9216 124.642 97.2924C124.403 96.4623 124.292 95.6006 124.311 94.7369C124.288 93.7688 124.42 92.8033 124.703 91.8772C124.914 91.1714 125.281 90.5221 125.777 89.9775C126.228 89.5054 126.783 89.1464 127.398 88.9296C128.042 88.7217 128.715 88.6235 129.391 88.6389ZM127.561 90.2817C127.418 90.3946 127.303 90.5378 127.223 90.7008C127.111 90.9169 127.021 91.1433 126.953 91.3769C126.874 91.6641 126.811 91.9552 126.763 92.249C126.717 92.5691 126.694 92.8923 126.696 93.2158L131.364 93.0197C131.307 92.6413 131.228 92.2666 131.128 91.8975C131.035 91.5428 130.892 91.2034 130.702 90.8901C130.532 90.605 130.301 90.3604 130.026 90.1735C129.729 89.9825 129.38 89.8859 129.027 89.8963C128.768 89.8962 128.51 89.9234 128.256 89.9775C128.007 90.0341 127.771 90.1373 127.561 90.2817Z" fill="#002D43"/>
<path d="M145.604 98.9082C145.998 98.8916 146.388 98.8257 146.766 98.7121V99.3882C146.415 99.5707 146.037 99.7532 145.624 99.9223C145.21 100.098 144.764 100.187 144.314 100.186C144.083 100.193 143.852 100.152 143.638 100.064C143.462 99.9896 143.305 99.8764 143.179 99.733C143.062 99.5982 142.964 99.4481 142.888 99.2868C142.81 99.1277 142.745 98.9626 142.693 98.7932L141.875 99.3341C141.612 99.5091 141.336 99.665 141.051 99.8006C140.752 99.9371 140.443 100.048 140.125 100.132C139.767 100.217 139.399 100.258 139.031 100.254C138.638 100.275 138.245 100.218 137.874 100.087C137.503 99.9558 137.162 99.7529 136.869 99.4896C136.586 99.1828 136.37 98.8209 136.232 98.4266C136.095 98.0324 136.041 97.6141 136.072 97.1978C136.062 96.7089 136.144 96.2225 136.315 95.7645C136.467 95.3581 136.729 95.0021 137.072 94.7369C137.472 94.432 137.932 94.2174 138.423 94.1082C139.087 93.9505 139.767 93.8666 140.45 93.858L142.476 93.7972V91.8163C142.517 91.3358 142.385 90.8564 142.105 90.4642C141.939 90.3052 141.741 90.1841 141.524 90.1093C141.307 90.0346 141.077 90.0081 140.848 90.0316C140.323 90.0471 139.801 90.1266 139.294 90.2682C138.681 90.4275 138.08 90.6331 137.498 90.8834L137.106 89.8355L138.207 89.4028C138.592 89.2541 138.99 89.1256 139.389 89.0107C139.793 88.8945 140.204 88.8019 140.619 88.7335C141.022 88.661 141.431 88.6248 141.841 88.6254C142.247 88.6193 142.652 88.6693 143.044 88.7741C143.381 88.8625 143.69 89.0345 143.942 89.2744C144.201 89.5324 144.391 89.8507 144.496 90.2006C144.631 90.6662 144.694 91.1493 144.685 91.6338V96.9814C144.679 98.2659 144.983 98.9082 145.604 98.9082ZM142.551 98.0699C142.551 98.0158 142.551 97.7048 142.517 97.1301C142.483 96.5555 142.517 95.778 142.517 94.7031C141.61 94.6753 140.704 94.7524 139.815 94.933C139.41 94.9944 139.025 95.1521 138.693 95.3927C138.544 95.5634 138.444 95.7713 138.403 95.9944C138.339 96.2966 138.31 96.605 138.315 96.9138C138.288 97.4094 138.398 97.903 138.632 98.3403C138.75 98.5108 138.911 98.647 139.098 98.7349C139.286 98.8228 139.494 98.8593 139.7 98.8406C140.197 98.8454 140.692 98.784 141.173 98.658C141.65 98.5203 142.109 98.3227 142.537 98.0699H142.551Z" fill="#002D43"/>
<path d="M154.671 90.6535L153.826 90.5792C153.509 90.5792 153.211 90.5386 152.928 90.5386C152.748 90.5351 152.568 90.5556 152.394 90.5994C152.244 90.6476 152.101 90.7158 151.968 90.8023C151.826 90.9008 151.693 91.0117 151.57 91.1335L151.111 91.5662V100.064H148.908V88.8823H150.752L151.063 90.6332C151.178 90.4913 151.306 90.3358 151.435 90.1668C151.563 89.9978 151.698 89.8355 151.833 89.6868C151.969 89.5364 152.113 89.3941 152.266 89.2608C152.414 89.1339 152.58 89.0292 152.759 88.9499C153.075 88.8145 153.41 88.7301 153.752 88.6997C154.16 88.6573 154.571 88.637 154.981 88.6389L154.671 90.6535Z" fill="#002D43"/>
<path d="M165.013 100.064V92.3099C165.014 92.0492 164.992 91.789 164.946 91.5324C164.908 91.2895 164.815 91.0584 164.676 90.8563C164.531 90.6427 164.333 90.4703 164.101 90.3561C163.783 90.2125 163.436 90.1454 163.088 90.16C162.792 90.1622 162.498 90.1962 162.21 90.2614C161.892 90.3243 161.579 90.4055 161.271 90.5048C160.959 90.5985 160.654 90.7137 160.359 90.8496C160.062 90.978 159.798 91.1065 159.555 91.2417V100.098H157.353V88.8822H159.197L159.508 90.1938L160.379 89.707C160.717 89.5313 161.055 89.3623 161.453 89.2068C161.839 89.0423 162.236 88.9067 162.642 88.8011C163.052 88.6941 163.475 88.6396 163.899 88.6389C164.357 88.6309 164.814 88.6994 165.25 88.8417C165.639 88.9688 165.994 89.1813 166.29 89.4637C166.588 89.7546 166.819 90.1078 166.966 90.498C167.138 90.9604 167.22 91.4514 167.209 91.9448V100.057L165.013 100.064Z" fill="#002D43"/>
<path d="M172.167 83.1493L173.673 84.6366L172.167 86.1239L170.681 84.6366L172.167 83.1493ZM171.086 100.051V88.8823H173.302V100.064L171.086 100.051Z" fill="#002D43"/>
<path d="M184.942 100.064V92.3099C184.943 92.0492 184.92 91.789 184.874 91.5324C184.834 91.2904 184.741 91.0599 184.604 90.8563C184.458 90.641 184.258 90.4683 184.023 90.3561C183.708 90.2131 183.363 90.1459 183.017 90.16C182.721 90.1622 182.427 90.1962 182.138 90.2614C181.821 90.3243 181.508 90.4055 181.199 90.5048C180.887 90.5973 180.583 90.7126 180.287 90.8496C179.99 90.978 179.727 91.1065 179.484 91.2417V100.098H177.281V88.8823H179.126L179.436 90.1938L180.308 89.707C180.657 89.5217 181.015 89.3547 181.382 89.2068C181.768 89.0423 182.165 88.9068 182.571 88.8011C182.981 88.6932 183.403 88.6387 183.827 88.6389C184.286 88.6314 184.742 88.6999 185.178 88.8417C185.567 88.9688 185.923 89.1813 186.219 89.4637C186.515 89.7564 186.745 90.1091 186.894 90.498C187.067 90.9604 187.149 91.4514 187.138 91.9448V100.057L184.942 100.064Z" fill="#002D43"/>
<path d="M193.846 107.859C193.268 107.87 192.691 107.804 192.13 107.663C191.721 107.56 191.336 107.378 190.995 107.129C190.722 106.929 190.506 106.661 190.367 106.352C190.234 106.059 190.167 105.74 190.171 105.419C190.167 105.148 190.206 104.879 190.286 104.621C190.359 104.371 190.456 104.128 190.577 103.897C190.696 103.661 190.833 103.435 190.989 103.221C191.135 103.019 191.293 102.825 191.462 102.64L192.015 102.836C191.903 103.112 191.814 103.397 191.752 103.688C191.696 103.968 191.669 104.254 191.671 104.54C191.661 104.811 191.718 105.081 191.835 105.326C191.953 105.571 192.128 105.784 192.346 105.946C192.881 106.315 193.522 106.498 194.17 106.466C194.852 106.47 195.532 106.398 196.197 106.25C196.767 106.131 197.309 105.901 197.791 105.574C198.086 105.34 198.306 105.025 198.426 104.668C198.571 104.256 198.642 103.821 198.636 103.384C198.654 103.15 198.615 102.915 198.522 102.699C198.429 102.484 198.285 102.294 198.102 102.146C197.545 101.834 196.908 101.695 196.271 101.748H194.488C193.528 101.8 192.57 101.624 191.691 101.234C191.406 101.073 191.172 100.835 191.016 100.547C190.861 100.258 190.79 99.9314 190.813 99.6045C190.815 99.372 190.863 99.1421 190.955 98.9284C191.045 98.6888 191.165 98.4616 191.313 98.2524C191.463 98.0361 191.626 97.8285 191.799 97.6304C191.982 97.4276 192.157 97.2451 192.333 97.0828C191.732 96.7219 191.233 96.215 190.881 95.609C190.471 94.8775 190.272 94.0467 190.306 93.209C190.298 92.5535 190.412 91.9021 190.644 91.289C190.849 90.7425 191.169 90.2467 191.583 89.8355C191.989 89.4356 192.471 89.1227 193.002 88.9161C193.572 88.7013 194.176 88.5936 194.785 88.5983C195.26 88.594 195.734 88.6279 196.204 88.6997C196.614 88.7609 197.018 88.8535 197.413 88.9769C197.933 88.9769 198.494 88.9093 199.089 88.8417C199.613 88.7919 200.134 88.7106 200.649 88.5983L200.399 89.7273C200.098 89.8257 199.788 89.8958 199.474 89.9369C199.131 89.9887 198.786 90.0158 198.44 90.018C198.646 90.3915 198.804 90.7888 198.913 91.2011C199.061 91.7818 199.127 92.3802 199.109 92.9791C199.123 93.6398 198.999 94.2962 198.744 94.9059C198.52 95.4362 198.184 95.9115 197.758 96.2986C197.329 96.676 196.828 96.9613 196.285 97.1369C195.707 97.334 195.099 97.4323 194.488 97.4276C194.272 97.4276 194.015 97.4276 193.711 97.4276C193.482 97.4245 193.254 97.3881 193.036 97.3194C192.933 97.537 192.849 97.7632 192.786 97.9955C192.7 98.2713 192.657 98.5585 192.657 98.8473C192.651 98.9973 192.695 99.1452 192.781 99.2676C192.868 99.39 192.993 99.48 193.137 99.5234C193.512 99.6538 193.908 99.7156 194.306 99.7059H196.711C197.327 99.6941 197.944 99.7508 198.548 99.8749C198.982 99.9636 199.391 100.148 199.744 100.416C200.053 100.653 200.288 100.975 200.419 101.342C200.561 101.778 200.627 102.236 200.615 102.694C200.606 103.347 200.432 103.986 200.109 104.553C199.751 105.196 199.271 105.764 198.697 106.223C198.049 106.736 197.324 107.142 196.548 107.426C195.681 107.732 194.766 107.879 193.846 107.859ZM194.596 96.2986C195.228 96.329 195.854 96.1688 196.393 95.8389C196.661 95.6056 196.842 95.2888 196.906 94.9397C197.053 94.3153 197.117 93.6743 197.096 93.0332C197.099 92.602 197.045 92.1722 196.934 91.7555C196.834 91.3888 196.669 91.0431 196.447 90.7346C196.245 90.4566 195.984 90.2259 195.684 90.0586C195.374 89.8944 195.028 89.8107 194.677 89.8152C194.109 89.779 193.544 89.9234 193.063 90.2276C192.61 90.5521 192.387 91.5121 192.387 93.1008C192.388 93.5078 192.445 93.9127 192.556 94.3042C192.652 94.6664 192.804 95.011 193.009 95.3251C193.185 95.6041 193.414 95.8453 193.684 96.0349C193.952 96.2183 194.271 96.3128 194.596 96.3054V96.2986Z" fill="#002D43"/>
<path d="M67.3012 111.915C67.4935 111.906 67.6839 111.875 67.8687 111.821V112.159C67.687 112.257 67.4998 112.345 67.308 112.423C67.0948 112.514 66.8643 112.558 66.6324 112.551C66.5212 112.554 66.4106 112.534 66.3082 112.49C66.2241 112.454 66.1483 112.401 66.0852 112.335C66.0256 112.269 65.9776 112.193 65.9434 112.112C65.9039 112.035 65.8701 111.956 65.842 111.875L65.4435 112.139C65.3168 112.223 65.1835 112.298 65.0449 112.362C64.8998 112.431 64.7482 112.485 64.5923 112.524C64.4175 112.566 64.2383 112.587 64.0586 112.585C63.866 112.596 63.6731 112.569 63.4911 112.505C63.309 112.441 63.1414 112.342 62.998 112.213C62.8606 112.062 62.7556 111.885 62.6893 111.692C62.6231 111.499 62.5971 111.294 62.6129 111.091C62.6115 110.86 62.6503 110.632 62.7277 110.415C62.8048 110.216 62.933 110.041 63.0993 109.908C63.2997 109.758 63.5302 109.654 63.7748 109.603C64.103 109.528 64.4381 109.488 64.7747 109.482L65.7542 109.448V108.481C65.7774 108.241 65.7126 108.001 65.5718 107.805C65.4911 107.727 65.3944 107.667 65.2882 107.629C65.1821 107.592 65.0691 107.578 64.9571 107.589C64.7006 107.596 64.4463 107.637 64.2004 107.71C63.9003 107.786 63.6066 107.886 63.3222 108.008L63.1263 107.494L63.6668 107.285C63.857 107.211 64.0509 107.148 64.2477 107.095C64.4426 107.037 64.6412 106.991 64.8422 106.96C65.0404 106.922 65.2418 106.904 65.4435 106.906C65.6415 106.903 65.8391 106.925 66.0312 106.974C66.193 107.023 66.3426 107.106 66.4703 107.217C66.5956 107.346 66.6882 107.504 66.7405 107.677C66.8058 107.896 66.8377 108.124 66.8351 108.353V110.962C66.8554 111.604 67.004 111.915 67.3012 111.915ZM65.8083 111.503C65.8083 111.503 65.8083 111.327 65.8083 111.05C65.8083 110.773 65.8083 110.374 65.8083 109.86C65.3662 109.848 64.9242 109.887 64.4909 109.975C64.2935 110.005 64.1059 110.082 63.9437 110.198C63.8702 110.28 63.8211 110.381 63.8019 110.489C63.7703 110.638 63.7544 110.79 63.7546 110.942C63.7467 111.177 63.8003 111.41 63.91 111.618C63.9692 111.701 64.0489 111.767 64.1413 111.809C64.2337 111.852 64.3355 111.87 64.4369 111.861C64.6784 111.864 64.9193 111.835 65.153 111.774C65.3807 111.708 65.6005 111.617 65.8083 111.503Z" fill="#002D43"/>
<path d="M73.4819 113.105C73.4862 113.478 73.4477 113.85 73.367 114.214C73.2983 114.508 73.1916 114.792 73.0495 115.059C72.9179 115.305 72.7544 115.532 72.5631 115.735C72.3743 115.939 72.1736 116.13 71.9619 116.31L71.6309 115.972C71.9092 115.669 72.1128 115.306 72.2253 114.91C72.3592 114.39 72.4206 113.853 72.4077 113.315V107.048H73.4819V113.105ZM72.9347 104.215L73.6643 104.939L72.9347 105.669L72.2051 104.939L72.9347 104.215Z" fill="#002D43"/>
<path d="M78.2448 112.592C77.8848 112.616 77.5237 112.564 77.185 112.439C76.8464 112.314 76.5377 112.12 76.2789 111.868C75.787 111.28 75.5446 110.523 75.6034 109.759C75.5981 109.356 75.6528 108.955 75.7655 108.569C75.8682 108.236 76.041 107.93 76.2722 107.67C76.5034 107.421 76.7873 107.227 77.1031 107.102C77.8449 106.845 78.6515 106.845 79.3933 107.102C79.7104 107.215 79.9955 107.402 80.2242 107.65C80.462 107.903 80.6418 108.205 80.7511 108.535C80.8706 108.925 80.9276 109.331 80.92 109.739C80.927 110.142 80.87 110.543 80.7511 110.928C80.6491 111.26 80.4788 111.566 80.2512 111.828C80.0238 112.081 79.7388 112.276 79.4203 112.395C79.0446 112.535 78.6456 112.602 78.2448 112.592ZM76.7383 109.745C76.7337 110.09 76.7608 110.434 76.8194 110.773C76.8615 111.014 76.951 111.243 77.0829 111.449C77.1929 111.625 77.3528 111.764 77.5422 111.848C77.7557 111.939 77.986 111.982 78.2178 111.976C78.4087 111.98 78.5994 111.96 78.7853 111.915C78.9604 111.869 79.1239 111.786 79.2649 111.672C79.4769 111.49 79.612 111.234 79.6432 110.955C79.7095 110.556 79.7412 110.151 79.7378 109.745C79.7791 109.153 79.6551 108.561 79.3797 108.035C79.2554 107.854 79.0856 107.71 78.8875 107.616C78.6894 107.522 78.47 107.482 78.2516 107.501C78.0607 107.499 77.8702 107.519 77.6841 107.562C77.5111 107.604 77.3481 107.68 77.2045 107.785C77.1079 107.862 77.0314 107.962 76.9815 108.075C76.92 108.225 76.8703 108.378 76.8329 108.535C76.7931 108.722 76.766 108.912 76.7518 109.103C76.7428 109.319 76.7383 109.531 76.7383 109.739V109.745Z" fill="#002D43"/>
<path d="M84.0207 107.021V110.82C84.0106 110.946 84.0106 111.073 84.0207 111.199C84.0412 111.32 84.0873 111.435 84.1558 111.537C84.231 111.638 84.328 111.721 84.4395 111.78C84.5944 111.849 84.7632 111.882 84.9327 111.875C85.0757 111.872 85.2181 111.856 85.3583 111.828C85.5136 111.794 85.6623 111.753 85.8176 111.706C85.9703 111.661 86.1193 111.604 86.2635 111.537C86.4054 111.476 86.5405 111.408 86.6553 111.348V107.021H87.7362V112.483H86.831L86.6688 111.807L86.2432 112.044C86.0811 112.132 85.9055 112.213 85.7163 112.294C85.5252 112.371 85.3288 112.435 85.1286 112.483C84.9281 112.537 84.7214 112.565 84.5138 112.565C84.2851 112.569 84.0571 112.537 83.8383 112.47C83.649 112.407 83.476 112.303 83.3316 112.166C83.1858 112.023 83.0728 111.85 83.0006 111.659C82.9181 111.443 82.8769 111.214 82.879 110.983V107.014L84.0207 107.021Z" fill="#002D43"/>
<path d="M93.0328 107.859H92.614H92.1749C92.0899 107.844 92.003 107.844 91.9181 107.859C91.8443 107.881 91.7738 107.913 91.7087 107.954C91.6402 108.004 91.5747 108.058 91.5128 108.116L91.2899 108.326V112.483H90.209V107.021H91.1075L91.2629 107.873C91.3285 107.8 91.3895 107.723 91.4453 107.643C91.5128 107.562 91.5736 107.481 91.6412 107.406C91.7059 107.334 91.7759 107.266 91.8506 107.203C91.9231 107.139 92.0051 107.087 92.0938 107.048C92.2491 106.984 92.413 106.943 92.5802 106.926C92.7782 106.915 92.9767 106.915 93.1747 106.926L93.0328 107.859Z" fill="#002D43"/>
<path d="M98.5922 112.483V108.677C98.6022 108.551 98.6022 108.425 98.5922 108.299C98.5728 108.179 98.5266 108.066 98.4571 107.967C98.389 107.86 98.2902 107.775 98.1733 107.724C98.0201 107.649 97.8505 107.614 97.6802 107.623C97.5372 107.626 97.3948 107.641 97.2546 107.67L96.7952 107.792C96.6426 107.837 96.4935 107.893 96.3493 107.961C96.2075 108.021 96.0724 108.089 95.9575 108.15V112.483H94.8496V107.021H95.7481L95.8967 107.656L96.3223 107.42C96.4912 107.329 96.6648 107.248 96.8425 107.176C97.0334 107.097 97.2298 107.031 97.4302 106.98C97.6307 106.926 97.8374 106.899 98.045 106.899C98.2744 106.893 98.503 106.928 98.7205 107.001C98.9102 107.059 99.0837 107.161 99.2272 107.298C99.3744 107.44 99.4876 107.613 99.5582 107.805C99.6407 108.021 99.6819 108.25 99.6798 108.481V112.456L98.5922 112.483Z" fill="#002D43"/>
<path d="M104.213 106.899C104.442 106.902 104.669 106.936 104.889 107.001C105.119 107.07 105.332 107.19 105.51 107.352C105.718 107.544 105.888 107.773 106.01 108.028C106.166 108.345 106.271 108.685 106.321 109.036V109.096C106.268 109.164 106.201 109.219 106.125 109.259C106.025 109.313 105.918 109.354 105.807 109.38C105.646 109.427 105.481 109.461 105.314 109.482C105.091 109.517 104.865 109.54 104.639 109.549L102.862 109.671V110.016C102.822 110.509 102.943 111.003 103.207 111.422C103.333 111.572 103.493 111.69 103.674 111.767C103.855 111.843 104.051 111.876 104.247 111.861C104.447 111.86 104.646 111.84 104.841 111.801C105.04 111.767 105.236 111.722 105.429 111.665L105.936 111.503C106.057 111.463 106.174 111.413 106.287 111.354L106.422 111.665C106.267 111.767 106.098 111.875 105.902 111.99C105.703 112.103 105.498 112.205 105.287 112.294C105.068 112.388 104.842 112.465 104.612 112.524C104.369 112.586 104.119 112.618 103.869 112.619C103.581 112.622 103.295 112.574 103.024 112.477C102.765 112.376 102.534 112.217 102.349 112.01C102.143 111.766 101.989 111.483 101.896 111.179C101.762 110.761 101.694 110.326 101.693 109.887C101.684 109.413 101.75 108.941 101.889 108.488C101.989 108.142 102.17 107.825 102.416 107.562C102.634 107.332 102.902 107.156 103.2 107.048C103.527 106.943 103.869 106.892 104.213 106.899ZM103.308 107.69C103.241 107.747 103.186 107.816 103.146 107.893C103.09 108 103.047 108.114 103.017 108.231C102.977 108.371 102.945 108.513 102.923 108.657C102.909 108.812 102.909 108.968 102.923 109.123L105.206 109.029C105.179 108.844 105.138 108.661 105.085 108.481C105.042 108.31 104.974 108.146 104.882 107.994C104.799 107.854 104.686 107.734 104.551 107.643C104.407 107.548 104.237 107.501 104.065 107.508C103.937 107.507 103.81 107.521 103.686 107.548C103.551 107.565 103.421 107.614 103.308 107.69Z" fill="#002D43"/>
<path d="M111.772 107.859C111.779 107.78 111.779 107.701 111.772 107.623C111.772 107.541 111.772 107.467 111.772 107.393C111.772 107.318 111.772 107.257 111.725 107.203C111.715 107.157 111.702 107.112 111.685 107.068L112.61 106.852C112.66 106.963 112.692 107.082 112.705 107.203C112.715 107.347 112.715 107.492 112.705 107.636C112.7 108.001 112.65 108.365 112.556 108.718C112.453 109.141 112.323 109.556 112.164 109.962C111.995 110.388 111.806 110.814 111.59 111.246C111.374 111.679 111.144 112.085 110.914 112.463L110.394 113.281C110.219 113.565 110.03 113.842 109.827 114.119C109.624 114.397 109.428 114.66 109.219 114.91C109.013 115.155 108.787 115.381 108.543 115.586C108.339 115.769 108.112 115.924 107.868 116.046C107.637 116.152 107.386 116.207 107.131 116.208C106.997 116.213 106.863 116.197 106.733 116.161C106.626 116.136 106.525 116.09 106.436 116.026V115.681H106.598H106.767C106.953 115.674 107.135 115.625 107.3 115.539C107.516 115.426 107.721 115.295 107.915 115.147C108.15 114.973 108.376 114.785 108.591 114.586C108.807 114.376 109.016 114.153 109.212 113.91C109.408 113.694 109.593 113.469 109.766 113.234C109.924 113.034 110.069 112.824 110.198 112.605C109.996 112.003 109.786 111.449 109.584 110.922C109.381 110.394 109.192 109.935 109.016 109.509C108.841 109.083 108.678 108.725 108.53 108.42C108.381 108.116 108.26 107.879 108.158 107.744C108.09 107.626 107.989 107.53 107.868 107.467C107.768 107.413 107.657 107.383 107.543 107.379H107.456V107.055C107.578 107.02 107.702 106.993 107.827 106.974C107.983 106.941 108.141 106.926 108.3 106.926C108.437 106.927 108.573 106.945 108.705 106.98C108.829 107.01 108.939 107.081 109.016 107.183C109.175 107.391 109.307 107.618 109.408 107.859C109.557 108.157 109.705 108.535 109.861 108.9C110.016 109.265 110.178 109.725 110.347 110.185C110.516 110.645 110.671 111.111 110.82 111.571C110.998 111.246 111.154 110.91 111.286 110.563C111.411 110.254 111.51 109.935 111.583 109.61C111.654 109.314 111.704 109.014 111.732 108.711C111.759 108.436 111.772 108.152 111.772 107.859Z" fill="#002D43"/>
<path d="M117.717 107.609L117.103 107.555V107.244L118.548 106.061H118.764V107.021H120.257L120.19 107.508L119.744 107.548H119.285C119.116 107.548 118.947 107.548 118.778 107.548V111.104C118.77 111.273 118.808 111.441 118.886 111.591C118.954 111.726 119.109 111.787 119.352 111.787H119.812H120.305V112.159C120.207 112.208 120.105 112.248 120.001 112.281L119.589 112.402L119.143 112.504C119.007 112.529 118.869 112.543 118.731 112.544C118.607 112.545 118.485 112.529 118.366 112.497C118.244 112.469 118.131 112.414 118.035 112.335C117.93 112.241 117.847 112.126 117.792 111.997C117.724 111.815 117.692 111.622 117.697 111.429L117.717 107.609Z" fill="#002D43"/>
<path d="M124.236 112.592C123.875 112.615 123.513 112.563 123.174 112.438C122.834 112.314 122.524 112.119 122.264 111.868C121.774 111.279 121.532 110.523 121.588 109.759C121.585 109.356 121.642 108.955 121.757 108.569C121.86 108.236 122.032 107.93 122.264 107.67C122.495 107.421 122.779 107.227 123.094 107.102C123.462 106.965 123.851 106.899 124.243 106.906C124.632 106.898 125.019 106.962 125.385 107.095C125.699 107.21 125.982 107.397 126.209 107.643C126.432 107.901 126.596 108.206 126.688 108.535C126.805 108.926 126.862 109.331 126.857 109.739C126.861 110.141 126.804 110.543 126.688 110.928C126.587 111.261 126.414 111.568 126.182 111.828C125.956 112.079 125.673 112.274 125.358 112.396C124.999 112.528 124.619 112.595 124.236 112.592ZM122.723 109.745C122.72 110.09 122.75 110.434 122.811 110.773C122.853 111.014 122.942 111.243 123.074 111.449C123.184 111.625 123.344 111.764 123.534 111.848C123.747 111.939 123.977 111.982 124.209 111.976C124.4 111.98 124.591 111.96 124.777 111.916C124.951 111.867 125.114 111.785 125.256 111.672C125.468 111.49 125.603 111.234 125.635 110.956C125.701 110.556 125.733 110.151 125.729 109.745C125.77 109.153 125.647 108.561 125.371 108.035C125.246 107.855 125.076 107.711 124.878 107.618C124.68 107.524 124.461 107.484 124.243 107.501C124.052 107.498 123.862 107.519 123.675 107.562C123.502 107.604 123.339 107.68 123.196 107.785C123.099 107.862 123.023 107.962 122.973 108.076C122.911 108.225 122.862 108.378 122.824 108.535C122.781 108.722 122.754 108.912 122.743 109.103C122.736 109.319 122.723 109.529 122.723 109.739V109.745Z" fill="#002D43"/>
<path d="M134.12 106.899C134.349 106.901 134.576 106.935 134.796 107.001C135.028 107.072 135.242 107.192 135.424 107.352C135.63 107.544 135.797 107.774 135.917 108.028C136.073 108.346 136.18 108.686 136.235 109.035V109.096C136.18 109.162 136.114 109.217 136.039 109.259C135.937 109.314 135.828 109.355 135.715 109.38C135.553 109.427 135.388 109.461 135.221 109.482C134.998 109.517 134.772 109.54 134.546 109.549L132.776 109.671V110.016C132.738 110.508 132.856 111 133.114 111.422C133.241 111.571 133.401 111.689 133.582 111.765C133.762 111.842 133.958 111.874 134.154 111.861C134.354 111.861 134.553 111.84 134.749 111.801C134.947 111.767 135.143 111.722 135.336 111.665L135.843 111.503C135.964 111.463 136.081 111.413 136.194 111.354L136.336 111.665L135.816 111.99C135.614 112.102 135.407 112.204 135.194 112.294C134.976 112.389 134.75 112.466 134.519 112.524C134.276 112.587 134.026 112.618 133.776 112.619C133.488 112.621 133.202 112.573 132.931 112.477C132.671 112.379 132.439 112.219 132.256 112.01C132.046 111.77 131.891 111.486 131.803 111.179C131.687 110.772 131.632 110.351 131.641 109.928C131.629 109.454 131.693 108.982 131.83 108.528C131.936 108.185 132.116 107.869 132.357 107.602C132.575 107.37 132.847 107.194 133.147 107.088C133.459 106.973 133.788 106.909 134.12 106.899ZM133.222 107.69C133.151 107.744 133.093 107.813 133.053 107.893C132.998 108 132.954 108.114 132.925 108.231C132.884 108.371 132.852 108.513 132.83 108.657C132.82 108.812 132.82 108.968 132.83 109.123L135.113 109.029C135.085 108.844 135.046 108.661 134.998 108.481C134.95 108.31 134.88 108.147 134.789 107.994C134.708 107.853 134.595 107.732 134.458 107.643C134.314 107.548 134.144 107.501 133.972 107.508C133.844 107.507 133.718 107.521 133.593 107.548C133.458 107.564 133.328 107.613 133.215 107.69H133.222Z" fill="#002D43"/>
<path d="M140.747 109.34C140.949 109.712 141.145 110.056 141.334 110.394C141.524 110.732 141.706 111.016 141.882 111.273C142.023 111.49 142.186 111.692 142.368 111.875C142.48 112.004 142.637 112.087 142.807 112.105H142.942H143.05V112.423C142.923 112.463 142.792 112.493 142.659 112.51C142.5 112.538 142.34 112.552 142.179 112.551C141.97 112.555 141.764 112.501 141.584 112.396C141.399 112.279 141.237 112.13 141.105 111.956C140.932 111.727 140.776 111.485 140.639 111.233C140.477 110.942 140.294 110.611 140.078 110.239C139.902 110.523 139.733 110.8 139.571 111.077C139.42 111.334 139.256 111.582 139.078 111.821C138.926 112.025 138.744 112.205 138.538 112.355C138.353 112.488 138.13 112.559 137.903 112.558C137.714 112.557 137.528 112.518 137.355 112.443V112.118H137.443C137.645 112.119 137.843 112.065 138.018 111.963C138.212 111.835 138.387 111.681 138.538 111.503C138.738 111.262 138.923 111.009 139.092 110.746L139.767 109.705L139.22 108.718C139.058 108.427 138.909 108.184 138.781 107.988C138.679 107.822 138.551 107.674 138.403 107.548C138.296 107.454 138.16 107.401 138.018 107.399H137.869V107.075H138.065L138.294 107.041H138.504H138.673C138.855 107.034 139.035 107.071 139.2 107.149C139.352 107.234 139.485 107.349 139.592 107.487C139.735 107.667 139.862 107.859 139.97 108.062C140.098 108.292 140.247 108.562 140.429 108.88L140.909 108.123C141.035 107.923 141.172 107.731 141.321 107.548C141.434 107.407 141.566 107.282 141.713 107.176C141.835 107.09 141.982 107.042 142.132 107.041C142.224 107.03 142.317 107.03 142.409 107.041C142.499 107.061 142.588 107.091 142.672 107.129V107.467H142.463C142.318 107.47 142.178 107.52 142.064 107.609C141.915 107.718 141.783 107.848 141.672 107.994C141.544 108.163 141.402 108.366 141.253 108.603C141.105 108.839 140.936 109.049 140.747 109.34Z" fill="#002D43"/>
<path d="M148.307 107.954L147.949 107.798C147.807 107.744 147.665 107.704 147.516 107.663C147.368 107.623 147.233 107.589 147.091 107.562C146.971 107.537 146.849 107.524 146.726 107.521C146.598 107.521 146.47 107.541 146.348 107.582C146.212 107.634 146.086 107.71 145.976 107.805C145.91 107.869 145.853 107.942 145.807 108.021C145.739 108.137 145.689 108.262 145.659 108.393C145.606 108.586 145.572 108.783 145.557 108.981C145.542 109.267 145.542 109.554 145.557 109.84C145.55 110.16 145.58 110.48 145.645 110.793C145.685 111.016 145.775 111.226 145.909 111.408C146.026 111.554 146.18 111.666 146.355 111.733C146.555 111.798 146.765 111.83 146.976 111.828C147.256 111.825 147.534 111.793 147.807 111.733C148.073 111.671 148.333 111.585 148.584 111.476L148.732 111.801C148.591 111.902 148.442 112.003 148.28 112.098C148.115 112.193 147.943 112.277 147.766 112.348C147.583 112.422 147.393 112.478 147.199 112.517C146.997 112.564 146.791 112.586 146.584 112.585C146.294 112.587 146.006 112.539 145.733 112.443C145.474 112.344 145.242 112.184 145.057 111.976C144.845 111.735 144.687 111.452 144.591 111.145C144.361 110.325 144.361 109.457 144.591 108.637C144.699 108.289 144.876 107.967 145.112 107.69C145.34 107.431 145.627 107.229 145.949 107.102C146.32 106.961 146.714 106.892 147.111 106.899C147.368 106.899 147.631 106.913 147.902 106.94C148.165 106.94 148.408 107.007 148.631 107.048L148.307 107.954Z" fill="#002D43"/>
<path d="M152.59 106.899C152.819 106.901 153.046 106.935 153.266 107.001C153.498 107.072 153.712 107.192 153.894 107.352C154.102 107.542 154.27 107.772 154.387 108.028C154.546 108.345 154.653 108.685 154.705 109.035V109.096C154.65 109.162 154.584 109.217 154.509 109.259C154.407 109.314 154.298 109.355 154.184 109.38C154.025 109.427 153.863 109.461 153.698 109.482C153.474 109.517 153.249 109.539 153.023 109.549L151.253 109.671V110.016C151.213 110.509 151.334 111.003 151.597 111.422C151.722 111.572 151.881 111.69 152.061 111.766C152.241 111.842 152.436 111.875 152.631 111.861C152.83 111.861 153.03 111.841 153.225 111.801C153.424 111.768 153.62 111.723 153.813 111.665L154.32 111.503C154.443 111.463 154.562 111.413 154.678 111.354L154.813 111.665L154.293 111.99C154.093 112.102 153.888 112.204 153.678 112.294C153.459 112.388 153.233 112.465 153.002 112.524C152.757 112.586 152.505 112.618 152.252 112.619C151.967 112.622 151.683 112.573 151.415 112.477C151.154 112.38 150.922 112.219 150.739 112.01C150.529 111.77 150.375 111.486 150.287 111.179C150.17 110.772 150.116 110.351 150.124 109.928C150.113 109.454 150.177 108.982 150.314 108.528C150.419 108.185 150.599 107.869 150.84 107.602C151.059 107.37 151.33 107.194 151.631 107.088C151.938 106.974 152.262 106.911 152.59 106.899ZM151.685 107.69C151.614 107.743 151.559 107.813 151.523 107.893C151.465 108 151.42 108.114 151.388 108.231C151.349 108.371 151.32 108.513 151.3 108.657C151.273 108.811 151.259 108.967 151.259 109.123L153.543 109.029C153.517 108.844 153.479 108.661 153.428 108.481C153.383 108.309 153.312 108.145 153.218 107.994C153.137 107.853 153.024 107.732 152.887 107.643C152.744 107.546 152.573 107.499 152.401 107.508C152.274 107.508 152.147 107.521 152.023 107.548C151.901 107.571 151.786 107.62 151.685 107.69Z" fill="#002D43"/>
<path d="M156.771 112.483V103.519L157.846 103.248V112.483H156.771Z" fill="#002D43"/>
<path d="M160.305 112.483V103.519L161.379 103.248V112.483H160.305Z" fill="#002D43"/>
<path d="M165.979 106.899C166.208 106.901 166.435 106.935 166.655 107.001C166.887 107.072 167.101 107.192 167.283 107.352C167.489 107.544 167.656 107.774 167.776 108.028C167.932 108.346 168.039 108.686 168.094 109.035V109.096C168.039 109.162 167.973 109.217 167.898 109.259C167.795 109.313 167.686 109.354 167.574 109.38C167.412 109.427 167.247 109.461 167.08 109.482C166.857 109.517 166.631 109.54 166.405 109.549L164.635 109.671V110.016C164.597 110.508 164.715 111 164.973 111.422C165.099 111.572 165.259 111.69 165.44 111.767C165.621 111.843 165.817 111.876 166.013 111.861C166.213 111.861 166.412 111.84 166.607 111.801C166.806 111.767 167.002 111.722 167.195 111.665L167.702 111.503C167.823 111.463 167.94 111.413 168.053 111.354L168.188 111.665C168.04 111.767 167.864 111.875 167.675 111.99C167.473 112.102 167.266 112.204 167.053 112.294C166.834 112.388 166.609 112.465 166.378 112.524C166.135 112.587 165.885 112.618 165.635 112.619C165.347 112.622 165.061 112.574 164.79 112.477C164.532 112.376 164.3 112.217 164.115 112.01C163.909 111.767 163.757 111.484 163.669 111.179C163.55 110.773 163.493 110.351 163.5 109.928C163.49 109.454 163.556 108.982 163.696 108.528C163.802 108.185 163.981 107.869 164.223 107.602C164.441 107.37 164.712 107.194 165.013 107.088C165.323 106.974 165.649 106.91 165.979 106.899ZM165.081 107.69C165.01 107.744 164.952 107.813 164.912 107.893C164.857 108 164.813 108.114 164.783 108.231C164.743 108.371 164.711 108.513 164.689 108.657C164.668 108.811 164.656 108.967 164.655 109.123L166.939 109.029C166.91 108.844 166.872 108.661 166.824 108.481C166.775 108.31 166.705 108.147 166.614 107.994C166.533 107.853 166.42 107.732 166.283 107.643C166.139 107.548 165.969 107.501 165.797 107.508C165.67 107.507 165.543 107.521 165.419 107.548C165.297 107.57 165.181 107.618 165.081 107.69Z" fill="#002D43"/>
<path d="M173.903 112.483V108.677C173.913 108.551 173.913 108.425 173.903 108.299C173.884 108.179 173.837 108.066 173.768 107.967C173.697 107.862 173.599 107.779 173.484 107.724C173.331 107.649 173.161 107.614 172.991 107.623C172.848 107.626 172.706 107.641 172.565 107.67C172.41 107.67 172.261 107.744 172.106 107.792C171.953 107.837 171.804 107.893 171.66 107.961C171.518 108.021 171.383 108.089 171.268 108.15V112.483H170.188V107.021H171.093L171.241 107.656L171.667 107.42C171.836 107.329 172.009 107.248 172.187 107.176C172.378 107.097 172.574 107.031 172.775 106.98C172.975 106.926 173.182 106.899 173.39 106.899C173.608 106.897 173.825 106.931 174.031 107.001C174.221 107.059 174.395 107.161 174.538 107.298C174.682 107.442 174.795 107.615 174.869 107.805C174.952 108.021 174.993 108.25 174.991 108.481V112.456L173.903 112.483Z" fill="#002D43"/>
<path d="M180.97 107.954L180.605 107.798C180.466 107.745 180.324 107.7 180.18 107.663C180.038 107.623 179.889 107.589 179.747 107.562C179.63 107.537 179.51 107.523 179.389 107.521C179.261 107.521 179.133 107.541 179.011 107.582C178.875 107.634 178.75 107.71 178.639 107.805C178.573 107.87 178.514 107.943 178.464 108.021C178.401 108.14 178.351 108.264 178.315 108.393C178.268 108.587 178.237 108.783 178.221 108.981C178.191 109.267 178.178 109.553 178.18 109.84C178.176 110.16 178.206 110.479 178.268 110.793C178.312 111.015 178.405 111.225 178.538 111.408C178.656 111.554 178.809 111.666 178.984 111.733C179.184 111.799 179.395 111.831 179.605 111.828C179.883 111.825 180.159 111.793 180.43 111.733C180.698 111.672 180.961 111.586 181.213 111.476L181.355 111.801C181.212 111.908 181.064 112.008 180.909 112.098C180.744 112.192 180.572 112.276 180.396 112.348C180.212 112.422 180.022 112.478 179.828 112.517C179.627 112.564 179.421 112.586 179.214 112.585C178.922 112.587 178.632 112.539 178.356 112.443C178.097 112.343 177.865 112.183 177.68 111.976C177.466 111.737 177.306 111.453 177.214 111.145C177.092 110.739 177.035 110.317 177.045 109.894C177.04 109.468 177.1 109.045 177.221 108.637C177.328 108.291 177.503 107.969 177.734 107.69C177.966 107.431 178.255 107.229 178.579 107.102C178.947 106.961 179.339 106.892 179.734 106.899C179.998 106.899 180.262 106.913 180.524 106.94C180.794 106.94 181.038 107.007 181.261 107.048L180.97 107.954Z" fill="#002D43"/>
<path d="M185.239 106.899C185.468 106.901 185.695 106.935 185.915 107.001C186.146 107.072 186.361 107.192 186.543 107.352C186.749 107.544 186.916 107.774 187.036 108.028C187.195 108.345 187.302 108.685 187.353 109.035V109.096C187.299 109.162 187.233 109.217 187.158 109.259C187.056 109.314 186.946 109.355 186.833 109.38C186.672 109.427 186.507 109.461 186.34 109.482C186.116 109.517 185.891 109.54 185.665 109.549L183.895 109.671V110.016C183.855 110.509 183.976 111.003 184.239 111.422C184.364 111.572 184.523 111.69 184.703 111.767C184.883 111.843 185.078 111.876 185.273 111.861C185.472 111.861 185.672 111.84 185.867 111.801C186.066 111.767 186.262 111.722 186.455 111.665L186.962 111.503C187.084 111.462 187.204 111.412 187.32 111.354L187.455 111.665L186.935 111.99C186.733 112.102 186.525 112.204 186.313 112.294C186.094 112.389 185.869 112.466 185.638 112.524C185.395 112.587 185.145 112.618 184.894 112.619C184.607 112.621 184.321 112.573 184.05 112.477C183.79 112.379 183.558 112.219 183.374 112.01C183.164 111.77 183.01 111.486 182.922 111.179C182.801 110.759 182.747 110.324 182.76 109.887C182.748 109.414 182.812 108.941 182.949 108.488C183.055 108.144 183.234 107.828 183.476 107.562C183.694 107.329 183.965 107.153 184.266 107.048C184.58 106.946 184.909 106.896 185.239 106.899ZM184.34 107.69C184.269 107.744 184.212 107.813 184.172 107.893C184.116 108 184.073 108.114 184.043 108.231C184.002 108.371 183.971 108.513 183.949 108.657C183.939 108.812 183.939 108.968 183.949 109.123L186.232 109.029C186.203 108.844 186.165 108.661 186.117 108.481C186.069 108.31 185.999 108.147 185.908 107.994C185.827 107.853 185.713 107.732 185.577 107.643C185.433 107.548 185.263 107.501 185.09 107.508C184.963 107.507 184.836 107.521 184.712 107.548C184.579 107.565 184.451 107.614 184.34 107.69Z" fill="#002D43"/>
<path d="M110.516 61.1504L110.988 61.0558C110.914 60.711 110.806 60.1837 110.698 59.6699L110.624 59.3183H110.266L106.753 59.0344L106.712 59.5144L107.077 59.8186C108.029 58.6828 108.881 57.7499 109.637 56.729C109.823 56.4794 109.971 56.2037 110.076 55.911C110.189 55.6166 110.255 55.3064 110.272 54.9915C110.353 52.4901 110.644 50.1104 111.894 48.0079C112.123 47.6225 112.34 47.2372 112.569 46.8992C112.778 46.5809 113.041 46.3018 113.346 46.0744C113.562 45.9256 113.731 45.8107 113.887 45.7228C114.079 45.6079 114.289 45.5256 114.508 45.4794C114.822 45.4225 115.141 45.3976 115.461 45.4051H116.447V44.9251V45.4051C116.764 45.4051 117.122 45.4051 117.528 45.4051C119.879 45.4051 123.56 45.1482 126.756 44.898L130.931 44.5465L132.282 44.4315L132.701 44.3977H132.897V44.1476V44.3977V44.1476V44.3977L132.944 43.9515L132.809 44.3775C132.838 44.3833 132.868 44.3833 132.897 44.3775L132.944 43.9313L132.809 44.3572L132.951 43.9042L132.667 44.2896C132.709 44.3223 132.757 44.3454 132.809 44.3572L132.951 43.9042L132.667 44.2896L132.951 43.9042L132.545 44.1611C132.579 44.2101 132.62 44.2535 132.667 44.2896L132.951 43.9042L132.545 44.1611L132.951 43.9042H132.471C132.473 43.9949 132.499 44.0834 132.545 44.1611L132.951 43.9042L132.478 43.8434V43.9042H132.957L132.485 43.8434L132.404 44.4654L133.025 44.3775C133.697 44.2831 134.374 44.2334 135.052 44.2287C135.988 44.2144 136.92 44.3584 137.808 44.6546C138.983 45.0635 140.007 45.8175 140.747 46.818C141.648 48.0646 142.333 49.4542 142.773 50.9285L143.226 50.7797L143.51 50.3876L141.037 48.6366L139.794 47.751L140.308 49.191C140.747 50.4214 141.125 51.3746 141.429 52.3346C141.776 53.3842 141.961 54.4809 141.976 55.5865C141.982 56.5067 141.831 57.4211 141.53 58.2907C141.266 59.2197 141.067 60.1663 140.936 61.1234L140.882 61.36L141.051 61.5425L141.192 61.7048C141.217 61.7385 141.244 61.7701 141.274 61.7994C141.341 61.86 141.422 61.9039 141.51 61.9279C141.655 61.9583 141.802 61.9786 141.949 61.9887C142.025 61.9805 142.102 61.9805 142.179 61.9887C142.267 61.9887 142.287 61.9887 142.287 61.9887C142.31 62.0231 142.324 62.0626 142.327 62.1037C142.336 62.2094 142.336 62.3157 142.327 62.4214C142.326 62.6369 142.27 62.8485 142.165 63.0366C142.049 63.238 141.887 63.4093 141.692 63.5369C141.213 63.9031 140.813 64.3632 140.517 64.889C140.387 65.1188 140.294 65.3674 140.24 65.6259C140.179 65.8558 140.139 66.0721 140.085 66.2479C139.665 67.5796 138.808 68.7303 137.653 69.5132C136.527 70.285 135.194 70.6975 133.829 70.6963C132.35 70.7055 130.915 70.1933 129.776 69.2496C129.228 68.7771 128.77 68.209 128.424 67.573C128.071 66.9165 127.799 66.2196 127.614 65.4975C127.614 65.4975 127.614 65.4231 127.614 65.3487C127.599 65.253 127.579 65.1581 127.553 65.0648C127.47 64.7968 127.359 64.5385 127.222 64.2941C127.129 64.1434 127.007 64.0125 126.864 63.9087C126.692 63.7933 126.49 63.732 126.283 63.733C126.183 63.7332 126.083 63.7468 125.986 63.7735C125.826 63.8154 125.674 63.8865 125.54 63.9831C125.359 64.1235 125.2 64.2898 125.067 64.4766C124.944 64.6476 124.836 64.8285 124.743 65.0175C124.586 65.3787 124.457 65.7516 124.358 66.133C124.271 66.4672 124.16 66.7948 124.027 67.1132C123.562 68.1874 122.785 69.0967 121.797 69.7228C120.739 70.3641 119.522 70.6944 118.284 70.6761C118.055 70.6761 117.818 70.6761 117.609 70.6761C116.354 70.6447 115.138 70.232 114.123 69.493C113.166 68.7105 112.481 67.6458 112.164 66.4507C112.012 65.8488 111.804 65.2626 111.542 64.6997C111.204 64.0215 110.619 63.4989 109.908 63.2394L109.799 63.5099L110.016 63.3138C109.987 63.2801 109.949 63.2544 109.908 63.2394L109.799 63.5099L110.016 63.3138L109.908 63.4152L110.029 63.3273L109.921 63.4287L110.043 63.3408H109.995H110.043H109.995H110.043C110.004 63.2433 109.979 63.1409 109.968 63.0366C109.937 62.7603 109.937 62.4814 109.968 62.2051H109.853L109.962 62.2592V62.2253H109.847L109.955 62.2794C109.977 62.2526 110.002 62.2277 110.029 62.2051C110.137 62.1138 110.25 62.0281 110.367 61.9482C110.516 61.84 110.684 61.7251 110.853 61.5763L111.063 61.3938L111.009 61.1166L110.536 61.2113L110.225 60.8462C110.022 61.022 109.786 61.1775 109.549 61.3397C109.43 61.4211 109.322 61.5164 109.225 61.6237C109.108 61.7556 109.029 61.9168 108.996 62.0901C108.968 62.2668 108.955 62.4454 108.955 62.6242C108.953 62.9038 108.983 63.1827 109.043 63.4558C109.07 63.5877 109.115 63.7152 109.178 63.8344C109.215 63.9047 109.261 63.9705 109.313 64.0304C109.379 64.1055 109.463 64.1635 109.556 64.1994C109.806 64.2911 110.036 64.4313 110.232 64.6118C110.491 64.8666 110.689 65.1762 110.813 65.5177C110.955 65.8828 111.069 66.302 111.205 66.7549C111.582 68.1392 112.383 69.3707 113.495 70.2772C114.666 71.122 116.064 71.5933 117.508 71.6293C117.771 71.6293 118.028 71.6293 118.278 71.6293C119.672 71.6707 121.05 71.3219 122.257 70.622C123.408 69.8993 124.314 68.8461 124.858 67.6C125.013 67.238 125.142 66.8652 125.243 66.4845C125.326 66.1515 125.437 65.8259 125.574 65.511C125.658 65.3313 125.764 65.1631 125.891 65.0107C125.946 64.9487 126.008 64.8921 126.074 64.8417C126.101 64.8143 126.137 64.7955 126.175 64.7876H126.242H126.283C126.344 64.8469 126.393 64.9182 126.425 64.9972C126.491 65.1473 126.55 65.3007 126.6 65.4569C126.605 65.4973 126.605 65.5382 126.6 65.5786C126.613 65.6631 126.631 65.7467 126.655 65.8287C126.855 66.627 127.154 67.397 127.546 68.1206C127.956 68.8604 128.496 69.5201 129.141 70.0676C130.452 71.1574 132.104 71.7509 133.809 71.7442C135.366 71.7431 136.887 71.2719 138.173 70.3921C139.518 69.4939 140.517 68.1631 141.003 66.6197C141.084 66.3763 141.125 66.1465 141.179 65.9437C141.212 65.7764 141.269 65.6147 141.348 65.4637C141.578 65.0526 141.888 64.6917 142.26 64.4023C142.565 64.1911 142.82 63.9167 143.01 63.5977C143.197 63.2634 143.295 62.886 143.293 62.5025C143.291 62.3348 143.275 62.1675 143.246 62.0023C143.206 61.7634 143.096 61.542 142.929 61.3668C142.818 61.2568 142.684 61.1735 142.537 61.1234C142.37 61.0733 142.197 61.0438 142.023 61.0355C141.92 61.0439 141.816 61.0439 141.713 61.0355L141.611 61.4276L141.882 61.1234C141.832 61.0824 141.775 61.0525 141.713 61.0355L141.611 61.4276L141.882 61.1234L141.713 61.3127L141.895 61.1437L141.726 61.333L141.909 61.1639L141.733 60.9611L141.375 61.2856L141.848 61.3803C141.975 60.467 142.165 59.5635 142.415 58.6761C142.745 57.7145 142.912 56.7045 142.908 55.6879C142.894 54.4834 142.694 53.2884 142.314 52.1454C141.996 51.1448 141.638 50.1848 141.186 48.9679L140.733 49.1301L140.456 49.5223L142.902 51.1989L144.104 52.0439L143.638 50.6513C142.848 48.2986 141.875 46.4665 140.476 45.2023C139.778 44.5659 138.957 44.0783 138.065 43.769C137.074 43.4396 136.035 43.2797 134.991 43.2958C134.279 43.3005 133.568 43.3524 132.863 43.4513L132.93 43.9313L133.41 43.9921V43.9313C133.416 43.8396 133.389 43.7489 133.336 43.6744C133.289 43.5977 133.221 43.5365 133.14 43.4986C133.098 43.4745 133.052 43.4585 133.005 43.4513H132.903H132.64C131.802 43.5121 129.107 43.7623 126.067 43.9989C123.027 44.2355 119.663 44.4586 117.521 44.4586C117.129 44.4586 116.785 44.4586 116.487 44.4586H115.467C114.972 44.4384 114.478 44.4978 114.001 44.6344C113.796 44.7021 113.599 44.7928 113.414 44.9048C113.204 45.0248 113.001 45.1557 112.806 45.2969C112.407 45.5806 112.061 45.9331 111.786 46.338C111.515 46.7301 111.292 47.1358 111.069 47.5008C109.718 49.8332 109.394 52.4023 109.306 54.9375C109.3 55.1463 109.256 55.3523 109.178 55.5459C109.102 55.7532 108.997 55.9489 108.867 56.1273C108.144 57.1008 107.313 58.0203 106.341 59.1763L105.746 59.893L106.672 59.9673L110.191 60.2513L110.232 59.7713L109.759 59.8659C109.867 60.3797 109.975 60.907 110.049 61.2518L110.516 61.1504L110.205 60.7853L110.516 61.1504ZM121.108 54.5386L120.831 54.1465C120.52 54.3696 120.257 54.5454 119.994 54.7482C118.09 56.2539 115.973 57.4662 113.711 58.3448C113.42 58.453 113.191 58.5341 112.988 58.6287C112.841 58.6975 112.703 58.7838 112.576 58.8856C112.479 58.9707 112.397 59.0712 112.333 59.1831C112.246 59.3443 112.193 59.5214 112.177 59.7037C112.167 59.9018 112.167 60.1004 112.177 60.2986V60.5352C112.184 60.7235 112.205 60.911 112.238 61.0963L112.292 61.5561H112.752C112.988 61.5561 113.211 61.5561 113.481 61.4952C114.773 61.267 116.081 61.1517 117.393 61.1504C119.173 61.1504 120.946 61.3776 122.669 61.8265C123.792 62.1158 124.947 62.2634 126.107 62.2659C127.313 62.2611 128.514 62.1043 129.681 61.7994C131.355 61.3568 133.078 61.1296 134.808 61.1234C135.793 61.126 136.777 61.1893 137.754 61.3127C138.301 61.3803 138.862 61.4682 139.571 61.5696L140.152 61.6575L140.118 61.0693C140.031 59.6563 139.963 58.3651 139.855 57.013C139.806 56.5515 139.695 56.0989 139.524 55.6676C139.051 54.4507 138.511 53.2879 138.098 52.1115C137.896 51.3507 137.738 50.5787 137.626 49.7994L137.274 48.0417L136.687 49.7183C135.619 52.862 134.025 55.2823 131.519 57.0468C128.989 58.7619 125.979 59.6262 122.925 59.5144H122.871V59.9944L123.223 60.3189L128.026 55.0456L130.14 52.7132L127.438 54.302C123.642 56.5262 119.838 58.5341 115.366 59.5752L115.474 60.0417L115.798 60.3932C116.9 59.3927 117.825 58.5679 118.771 57.689C119.69 56.7899 120.541 55.8366 121.473 54.8563L120.845 54.1397L121.122 54.5318L120.777 54.2006C119.838 55.1876 118.994 56.1273 118.075 57.0062C117.19 57.8715 116.244 58.6896 115.13 59.7104L113.778 60.9476L115.575 60.5352C120.203 59.467 124.094 57.3915 127.911 55.1268L127.675 54.7144L127.317 54.3899L122.513 59.6631L121.784 60.5352H122.925C126.192 60.6379 129.405 59.6901 132.093 57.831C134.744 55.9073 136.689 53.163 137.626 50.0225L137.166 49.867L136.7 49.9617C136.814 50.7857 136.983 51.6011 137.207 52.4023C137.639 53.6394 138.186 54.809 138.639 55.9854C138.762 56.3638 138.832 56.7573 138.848 57.1549C138.956 58.4462 139.024 59.751 139.112 61.1707H139.591L139.659 60.6975C138.983 60.5961 138.402 60.5014 137.821 60.4338C136.806 60.3046 135.784 60.2391 134.761 60.2377C132.95 60.235 131.145 60.4622 129.391 60.9138C128.304 61.2004 127.184 61.3458 126.06 61.3465C124.982 61.3453 123.909 61.209 122.865 60.9408C121.061 60.4827 119.206 60.2556 117.345 60.2648C115.987 60.2688 114.631 60.3864 113.292 60.6163C113.068 60.6477 112.843 60.6657 112.616 60.6704V61.1504L113.096 61.0963C113.096 60.8732 113.042 60.7313 113.042 60.6434V60.3797C113.028 60.202 113.028 60.0234 113.042 59.8456C113.036 59.8075 113.036 59.7688 113.042 59.7307V59.6901C113.121 59.6311 113.207 59.5834 113.299 59.5482L113.873 59.3251C116.298 58.402 118.569 57.1164 120.608 55.5121C120.845 55.3296 121.101 55.1538 121.419 54.9239L121.135 54.5386L120.791 54.2073L121.108 54.5386ZM134.2 61.5223L134.099 61.0558C132.957 61.2992 131.336 61.5831 129.742 62.0428C129.568 62.0954 129.404 62.1752 129.255 62.2794C129.032 62.4358 128.834 62.625 128.668 62.8406C128.498 63.051 128.376 63.2954 128.31 63.5572C128.209 63.9826 128.157 64.418 128.154 64.8552C128.164 66.3448 128.756 67.7715 129.803 68.8304C130.872 69.9207 132.329 70.543 133.856 70.5611H133.971C134.818 70.5797 135.66 70.4188 136.442 70.0891C137.223 69.7594 137.925 69.2683 138.504 68.6479C139.687 67.2991 140.319 65.554 140.274 63.76V63.6451C140.275 63.3819 140.25 63.1192 140.199 62.8608C140.165 62.6816 140.098 62.5099 140.004 62.3538C139.859 62.1142 139.645 61.9253 139.389 61.813C139.112 61.6989 138.821 61.6216 138.524 61.5831C137.261 61.387 136.004 61.2789 134.255 61.0761H134.18H134.099L134.2 61.5425L134.146 62.0225C135.903 62.2253 137.159 62.3335 138.382 62.5228C138.574 62.5429 138.763 62.5883 138.943 62.658C139.009 62.6832 139.071 62.7198 139.125 62.7662C139.19 62.8298 139.233 62.9128 139.247 63.0028C139.298 63.2243 139.319 63.4518 139.308 63.6789C139.308 63.6789 139.308 63.7465 139.308 63.7803C139.341 65.317 138.801 66.811 137.794 67.9718C137.307 68.4995 136.714 68.9181 136.054 69.2001C135.394 69.4821 134.682 69.6211 133.964 69.6079H133.863C133.232 69.6015 132.609 69.4703 132.029 69.222C131.45 68.9737 130.925 68.6132 130.485 68.1611C129.618 67.2826 129.132 66.0969 129.134 64.862C129.135 64.5003 129.175 64.1398 129.255 63.787C129.278 63.7082 129.312 63.6331 129.357 63.5639C129.445 63.4201 129.554 63.2902 129.681 63.1786C129.78 63.0906 129.895 63.0218 130.019 62.9758C131.552 62.5296 133.147 62.2524 134.315 62.0023L134.214 61.529L134.16 62.009L134.2 61.5223ZM118.055 61.5223L118.001 61.0423C116.278 61.2383 114.988 61.3465 113.691 61.5358C113.432 61.5722 113.176 61.6311 112.927 61.7115C112.759 61.7752 112.602 61.8641 112.461 61.9752C112.249 62.1492 112.098 62.3859 112.029 62.6513C111.958 62.9225 111.926 63.2025 111.934 63.4828V63.6045C111.938 64.2851 112.003 64.964 112.13 65.6327C112.428 67.0258 113.202 68.2713 114.319 69.1549C115.406 70.0474 116.764 70.5433 118.17 70.5611C118.409 70.5588 118.648 70.543 118.886 70.5138C120.332 70.3619 121.669 69.6747 122.635 68.587C123.547 67.459 124.026 66.042 123.986 64.5915C123.986 64.4563 123.986 64.3279 123.986 64.1927C123.977 63.7162 123.844 63.2503 123.601 62.8406C123.473 62.6378 123.305 62.463 123.108 62.3268C122.902 62.1862 122.673 62.0811 122.432 62.0158C120.885 61.6304 119.332 61.3397 118.183 61.0761H118.109H118.028L118.082 61.5561L117.98 62.0293C119.136 62.2794 120.683 62.5837 122.203 62.9623C122.342 62.9942 122.475 63.0515 122.594 63.1313C122.739 63.2357 122.851 63.3785 122.919 63.5437C123.009 63.772 123.057 64.0148 123.061 64.2603C123.061 64.3752 123.061 64.4901 123.061 64.6051C123.095 65.8343 122.685 67.0346 121.905 67.9853C121.106 68.8995 119.991 69.4788 118.784 69.6079C118.587 69.6293 118.388 69.6405 118.19 69.6417C116.999 69.6188 115.849 69.1977 114.925 68.4454C114.001 67.6932 113.355 66.6531 113.089 65.4907C112.975 64.8706 112.917 64.2417 112.914 63.6113V63.5099C112.907 63.335 112.923 63.16 112.961 62.9893C112.972 62.927 112.995 62.8673 113.029 62.8135C113.083 62.7464 113.156 62.6969 113.238 62.6715C113.435 62.5871 113.641 62.5281 113.853 62.4958C115.109 62.3132 116.393 62.1983 118.129 62.009L118.075 61.529L117.974 62.0023L118.055 61.5223Z" fill="#002D43"/>
<path d="M118.684 66.2749C118.684 66.4464 118.633 66.6139 118.537 66.7564C118.442 66.8988 118.307 67.0097 118.148 67.075C117.99 67.1403 117.816 67.1571 117.648 67.1231C117.48 67.0892 117.326 67.0061 117.205 66.8844C117.084 66.7627 117.002 66.6079 116.97 66.4396C116.937 66.2713 116.955 66.0971 117.022 65.9391C117.088 65.7811 117.2 65.6464 117.343 65.5521C117.486 65.4579 117.654 65.4082 117.826 65.4096C117.939 65.4096 118.051 65.432 118.155 65.4756C118.26 65.5191 118.355 65.583 118.435 65.6634C118.514 65.7439 118.577 65.8393 118.62 65.9443C118.663 66.0492 118.684 66.1616 118.684 66.2749Z" fill="black"/>
<path d="M118.684 66.2749H118.366C118.366 66.3835 118.334 66.4897 118.274 66.5799C118.213 66.67 118.127 66.7402 118.027 66.7815C117.926 66.8227 117.816 66.8331 117.71 66.8115C117.603 66.7898 117.506 66.737 117.43 66.6597C117.353 66.5824 117.302 66.4842 117.282 66.3776C117.261 66.2709 117.273 66.1606 117.315 66.0606C117.358 65.9607 117.429 65.8757 117.52 65.8163C117.611 65.757 117.717 65.726 117.826 65.7273C117.897 65.7273 117.968 65.7415 118.034 65.7691C118.1 65.7967 118.16 65.8372 118.21 65.8881C118.261 65.9391 118.3 65.9995 118.327 66.0659C118.354 66.1323 118.367 66.2033 118.366 66.2749H119.008C119.008 66.0409 118.939 65.8122 118.809 65.6176C118.679 65.4231 118.494 65.2714 118.278 65.1819C118.062 65.0923 117.824 65.0689 117.595 65.1146C117.366 65.1602 117.155 65.2729 116.99 65.4384C116.824 65.6038 116.712 65.8146 116.666 66.0441C116.621 66.2736 116.644 66.5115 116.734 66.7277C116.823 66.9439 116.975 67.1286 117.169 67.2586C117.363 67.3886 117.592 67.458 117.826 67.458C118.139 67.4563 118.438 67.331 118.66 67.1095C118.881 66.8881 119.006 66.5882 119.008 66.2749H118.684Z" fill="#002D43"/>
<path d="M134.667 66.2749C134.667 66.4461 134.616 66.6134 134.521 66.7557C134.426 66.898 134.291 67.0089 134.133 67.0744C133.975 67.1399 133.801 67.157 133.634 67.1237C133.466 67.0903 133.312 67.0079 133.191 66.8868C133.07 66.7658 132.987 66.6116 132.954 66.4438C132.921 66.2759 132.938 66.1019 133.003 65.9438C133.069 65.7857 133.18 65.6505 133.322 65.5554C133.464 65.4603 133.631 65.4096 133.802 65.4096C133.916 65.4087 134.029 65.4304 134.134 65.4736C134.24 65.5168 134.335 65.5805 134.416 65.661C134.496 65.7416 134.56 65.8373 134.603 65.9427C134.646 66.0481 134.668 66.161 134.667 66.2749Z" fill="black"/>
<path d="M134.667 66.2749H134.343C134.342 66.3816 134.309 66.4855 134.249 66.5735C134.189 66.6616 134.104 66.7299 134.005 66.7698C133.906 66.8097 133.798 66.8194 133.693 66.7978C133.589 66.7762 133.493 66.7241 133.418 66.6482C133.343 66.5723 133.293 66.4759 133.272 66.3712C133.252 66.2665 133.263 66.1581 133.304 66.0597C133.345 65.9612 133.414 65.8772 133.503 65.818C133.592 65.7589 133.696 65.7273 133.803 65.7273C133.874 65.7273 133.945 65.7415 134.011 65.7691C134.077 65.7967 134.137 65.8372 134.187 65.8881C134.238 65.9391 134.277 65.9995 134.304 66.0659C134.331 66.1323 134.344 66.2033 134.343 66.2749H135.019C135.019 66.0409 134.949 65.8122 134.82 65.6176C134.69 65.4231 134.505 65.2714 134.289 65.1819C134.073 65.0923 133.835 65.0689 133.606 65.1146C133.377 65.1602 133.166 65.2729 133.001 65.4384C132.835 65.6038 132.723 65.8146 132.677 66.0441C132.631 66.2736 132.655 66.5115 132.744 66.7277C132.834 66.9439 132.985 67.1286 133.18 67.2586C133.374 67.3886 133.603 67.458 133.837 67.458C134.15 67.458 134.451 67.3334 134.672 67.1115C134.894 66.8896 135.019 66.5887 135.019 66.2749H134.667Z" fill="#002D43"/>
<path d="M112.117 39.2259L112.286 38.773L107.652 37.0423L106.976 36.7921V37.5087C106.983 38.1751 107.024 38.8408 107.098 39.5031C107.113 39.6202 107.152 39.7329 107.213 39.8344C107.286 39.9494 107.372 40.0559 107.469 40.1521L107.686 40.3549C107.804 40.4605 107.908 40.581 107.996 40.7132C108.034 40.7713 108.053 40.8399 108.05 40.9093C108.043 41.0773 108.004 41.2424 107.935 41.3961C107.904 41.4991 107.888 41.6061 107.888 41.7138C107.899 41.9679 107.963 42.2168 108.077 42.4439C108.435 43.12 108.827 43.7961 109.239 44.5668L109.665 44.3099V43.8299L105.227 44.0935V44.5735L105.672 44.7493C105.99 43.938 106.301 43.1944 106.564 42.4169C106.61 42.2656 106.632 42.1084 106.632 41.9504C106.635 41.7361 106.592 41.5237 106.503 41.3285C106.42 41.1621 106.371 40.9803 106.361 40.7944C106.36 40.6801 106.39 40.5678 106.449 40.4699C106.536 40.325 106.648 40.1968 106.78 40.0913C106.911 39.9747 107.013 39.8288 107.078 39.6654C107.135 39.5164 107.167 39.3586 107.172 39.1989C107.172 38.7324 107.071 38.3403 107.071 38.0293C107.071 37.982 107.071 37.9346 107.071 37.8873C107.071 37.8197 107.071 37.7521 107.071 37.6913C107.072 37.5039 107.038 37.318 106.969 37.1437C106.873 36.9032 106.703 36.6996 106.483 36.5623C106.292 36.4364 106.082 36.3406 105.862 36.2783C104.943 35.9673 104.024 35.6023 102.977 35.1763L102.801 35.6225L103.044 36.0349C103.632 35.6901 104.112 35.3589 104.591 35.129C106.483 34.169 108.381 33.1685 110.266 32.1408L118.974 27.4625C120.589 26.5904 122.183 25.7115 123.798 24.8868C123.91 24.8357 124.032 24.8103 124.156 24.8124C124.225 24.7987 124.296 24.7987 124.365 24.8124C126.851 25.7589 129.324 26.7662 131.796 27.7397C135.1 29.031 138.41 30.302 141.707 31.5797L146.28 33.4186L146.456 32.9724L146.226 32.5532C145.429 32.9994 144.733 33.3983 144.037 33.7769C142.011 34.8789 139.984 36.2851 137.957 37.3262L138.113 37.6304V37.2856C138.058 37.2879 138.005 37.3017 137.957 37.3262L138.113 37.6304V37.5493L138.18 37.3262H138.113V37.5493L138.18 37.3262V37.4073V37.3262V37.4073V37.3262L138.038 37.2248L137.856 37.0761C135.882 35.5785 133.555 34.6167 131.1 34.2839C129.443 34.0359 127.77 33.9094 126.094 33.9054H125.831C122.279 33.8572 118.764 34.6178 115.549 36.1296C114.107 36.7829 112.814 37.7265 111.752 38.9014L112.117 39.2124L112.286 38.7594L112.117 39.2124L112.489 39.5166C113.464 38.426 114.656 37.551 115.988 36.9476C119.076 35.5049 122.451 34.7858 125.858 34.8451H126.108C127.736 34.8507 129.362 34.975 130.972 35.2169C133.257 35.5306 135.423 36.4269 137.261 37.8197L137.356 37.9008C137.441 37.9744 137.532 38.0421 137.626 38.1037L137.822 38.2051C137.913 38.2399 138.009 38.2605 138.106 38.2659C138.207 38.2655 138.307 38.24 138.396 38.1916C140.463 37.1099 142.49 35.7037 144.476 34.6355C145.192 34.2501 145.888 33.8445 146.679 33.4051L147.564 32.9048L146.618 32.5397L142.071 30.7549C138.768 29.4366 135.471 28.1859 132.161 26.9014C129.682 25.9279 127.209 24.9206 124.73 23.9673C124.552 23.9037 124.365 23.8717 124.176 23.8727C123.902 23.8703 123.632 23.9304 123.385 24.0485C121.751 24.8868 120.15 25.7724 118.542 26.631L109.8 31.3093C107.922 32.3099 106.024 33.2969 104.139 34.3042C103.612 34.5814 103.126 34.8924 102.558 35.2304L101.693 35.7307L102.619 36.089C103.652 36.4879 104.578 36.8868 105.551 37.2113C105.718 37.2525 105.874 37.3285 106.01 37.4344C106.04 37.4559 106.061 37.4869 106.071 37.5223C106.082 37.5848 106.082 37.649 106.071 37.7115V37.8197C106.071 37.8941 106.071 37.9752 106.071 38.0496C106.071 38.5161 106.172 38.9082 106.166 39.2259C106.173 39.2639 106.173 39.3029 106.166 39.3408V39.3814L106.226 39.4355L106.172 39.3746L106.233 39.4287L106.179 39.3679C105.954 39.5571 105.766 39.7863 105.625 40.0439C105.489 40.2855 105.417 40.5577 105.416 40.8349C105.423 41.1611 105.502 41.4817 105.645 41.7746C105.674 41.8431 105.688 41.9168 105.686 41.991C105.692 42.0426 105.692 42.0948 105.686 42.1465C105.436 42.8834 105.132 43.6203 104.814 44.4451L104.544 45.1211L105.287 45.0738L109.732 44.8101L110.476 44.7696L110.111 44.0935C109.692 43.3296 109.307 42.667 108.962 41.9977C108.917 41.9065 108.887 41.8082 108.875 41.707H108.807H108.875H108.807H108.875C108.961 41.4565 109.008 41.1944 109.016 40.9296C109.014 40.6915 108.949 40.4583 108.827 40.2535C108.699 40.0415 108.54 39.85 108.354 39.6856C108.253 39.5842 108.158 39.5031 108.098 39.4355C108.077 39.4155 108.058 39.3927 108.044 39.3679L107.942 39.4152H108.05V39.3814L107.949 39.4287H108.057C107.983 38.8473 107.996 38.2254 107.969 37.5223H107.49L107.321 37.9752L111.962 39.7059L112.279 39.8276L112.495 39.5639L112.117 39.2259Z" fill="#002D43"/>
<path d="M113.462 45.0873H113.941C113.86 43.7352 113.759 42.4642 113.732 41.1865C113.756 41.1283 113.787 41.0736 113.826 41.0242C113.879 40.9454 113.942 40.8748 114.015 40.8146C116.571 38.757 119.664 37.4801 122.926 37.1369C124.127 36.9787 125.336 36.8974 126.547 36.8935C127.589 36.8893 128.63 36.9593 129.661 37.1031C132.035 37.4079 134.305 38.2646 136.289 39.6045C136.342 39.6403 136.388 39.6863 136.424 39.7397C136.455 39.8097 136.469 39.8863 136.464 39.9628C136.518 41.4299 136.62 42.5656 136.694 43.3769V43.4175H136.822H136.721H136.822H136.721L136.984 43.4918L136.782 43.3093C136.75 43.3378 136.729 43.3758 136.721 43.4175L136.984 43.4918L136.782 43.3093L137.005 43.5054L136.863 43.2417C136.832 43.2596 136.805 43.2825 136.782 43.3093L137.005 43.5054L136.863 43.2417L136.964 43.431L136.903 43.2282H136.863L136.964 43.4175L136.903 43.2146V43.2687V43.2079V43.262V43.2011H136.822L131.053 43.5527L119.629 44.2287L113.455 44.6141V45.0941H113.934H113.455V45.5741L119.629 45.1887L131.053 44.5127L136.822 44.1611H137.032C137.102 44.1497 137.17 44.1293 137.234 44.1003C137.363 44.0342 137.469 43.9305 137.538 43.8028C137.595 43.6849 137.623 43.5551 137.619 43.4242V43.2958C137.545 42.4913 137.444 41.3758 137.39 39.9155C137.387 39.6953 137.336 39.4784 137.241 39.28C137.135 39.0834 136.982 38.9161 136.795 38.7932C134.7 37.375 132.304 36.4632 129.796 36.1296C128.72 35.9781 127.634 35.9036 126.547 35.9065C125.293 35.9113 124.041 35.9971 122.798 36.1634C119.36 36.5299 116.1 37.8794 113.407 40.0507C113.252 40.1797 113.116 40.3299 113.002 40.4969C112.859 40.694 112.779 40.9296 112.772 41.173C112.772 42.5251 112.908 43.8028 112.982 45.1144V45.6011H113.462V45.0873Z" fill="#002D43"/>
<path d="M86.7498 48.1904V48.6704C87.7403 48.6965 88.7272 48.5407 89.6615 48.2107C90.1921 48.0151 90.6788 47.7164 91.0937 47.3318C91.624 46.8194 92.0048 46.172 92.1948 45.4592C92.3674 44.7973 92.4492 44.1149 92.438 43.431C92.394 41.5956 92.2201 39.7657 91.9178 37.9549C91.6242 36.2114 91.4549 34.4492 91.4112 32.6817C91.3927 31.4386 91.6224 30.2044 92.0867 29.0513C92.6719 27.6239 93.7611 26.4618 95.147 25.7859C96.7411 25.0295 98.4906 24.659 100.254 24.7042H101.126V27.3003H100.45C99.5771 27.2809 98.7076 27.4183 97.883 27.7059C97.3678 27.9001 96.8935 28.189 96.4846 28.5577C95.8958 29.1098 95.4664 29.8104 95.2416 30.5859C94.9911 31.4649 94.8727 32.3763 94.8903 33.2901C94.9154 34.8503 95.0667 36.4058 95.3429 37.9414C95.6235 39.5309 95.7726 41.1409 95.7888 42.7549V42.9577C95.8773 44.4782 95.4721 45.9865 94.6336 47.2575C93.8535 48.2592 92.7505 48.9592 91.5125 49.2383L91.1545 49.333V50.2051L91.5193 50.2997C92.7638 50.5537 93.8706 51.2592 94.6268 52.2806C95.4636 53.5727 95.8703 55.0967 95.7888 56.6344V56.8439C95.7755 58.4581 95.6263 60.0683 95.3429 61.6575C95.0656 63.2203 94.9143 64.8028 94.8903 66.3899C94.8773 67.2425 94.9796 68.093 95.1943 68.9183C95.4434 69.9928 96.072 70.9411 96.9642 71.5887C98.0023 72.2321 99.2099 72.5478 100.43 72.4947H101.105V75.0704H100.254C99.0481 75.0865 97.8456 74.9364 96.6805 74.6242C95.1539 74.2533 93.8042 73.3616 92.8636 72.1025C91.8214 70.5133 91.3126 68.633 91.4112 66.7346C91.4549 64.9873 91.6243 63.2453 91.9178 61.5223C92.2207 59.7752 92.3946 58.0081 92.438 56.2355C92.4374 55.6639 92.3693 55.0943 92.2353 54.5386C92.0193 53.5588 91.4671 52.6858 90.6748 52.071C89.5133 51.289 88.1269 50.9113 86.7296 50.9961V51.4761H87.2092V48.1904H86.7296H86.2432V51.9561H86.7296C87.6005 51.9288 88.4682 52.0736 89.2832 52.382C89.708 52.5417 90.0963 52.7854 90.4249 53.0986C90.8308 53.5071 91.1221 54.0154 91.2693 54.5724C91.4177 55.1094 91.4883 55.6649 91.4787 56.222C91.4363 57.9473 91.2646 59.6671 90.9653 61.3668C90.6629 63.1366 90.4891 64.9261 90.4451 66.7211C90.4142 68.1889 90.6665 69.6488 91.1882 71.0208C91.8514 72.7086 93.1179 74.0893 94.7417 74.8946C96.4679 75.6903 98.3544 76.0766 100.254 76.0237H102.092V71.5346H100.45C99.7218 71.5513 98.9964 71.4368 98.3086 71.1966C97.4981 70.9101 96.8315 70.3182 96.4508 69.547C96.0102 68.5622 95.8044 67.4883 95.8496 66.4101C95.8752 64.8932 96.0221 63.3808 96.2887 61.8873C96.5818 60.247 96.7355 58.5847 96.7481 56.9183V56.6952C96.829 54.9551 96.3559 53.2341 95.3969 51.7803C94.5021 50.5774 93.2008 49.7412 91.7354 49.4276L91.6206 49.8941H92.1002V49.7183H91.6206L91.7489 50.178C93.1989 49.8445 94.4883 49.0178 95.3969 47.8389C96.3619 46.4055 96.836 44.6974 96.7481 42.9713V42.7549C96.7278 41.0979 96.5742 39.4453 96.2887 37.813C96.0232 36.3284 95.8764 34.8251 95.8496 33.3172C95.835 32.5729 95.9168 31.8298 96.0928 31.1065C96.2001 30.6735 96.3757 30.2605 96.6129 29.8828C96.9487 29.3543 97.4361 28.9396 98.0113 28.693C98.7851 28.3798 99.6159 28.2324 100.45 28.2603H102.092V23.7577H100.254C97.4506 23.7577 95.0051 24.4 93.2352 25.867C92.3283 26.6185 91.6206 27.5822 91.1747 28.6727C90.6658 29.9443 90.4177 31.3054 90.4451 32.6749C90.4888 34.4879 90.6627 36.2954 90.9653 38.0834C91.2612 39.8494 91.4327 41.6341 91.4787 43.4242C91.485 43.9493 91.4306 44.4733 91.3166 44.9859C91.2307 45.3608 91.0846 45.7192 90.8842 46.0473C90.5661 46.5681 90.0939 46.9768 89.5331 47.2169C88.6471 47.5805 87.6932 47.7488 86.7363 47.7104H86.2499V48.1904H86.7498Z" fill="#002D43"/>
<path d="M163.169 52.9093V52.4225C162.17 52.3969 161.177 52.5669 160.244 52.9228C159.711 53.1392 159.225 53.4559 158.811 53.8558C158.294 54.3847 157.917 55.0358 157.717 55.7487C157.548 56.3744 157.466 57.0206 157.474 57.6687C157.518 59.4414 157.691 61.2084 157.994 62.9555C158.29 64.6761 158.461 66.4158 158.507 68.1611C158.539 69.5063 158.31 70.8449 157.832 72.1025C157.263 73.5792 156.158 74.7864 154.738 75.4828C153.148 76.2174 151.408 76.5693 149.658 76.5104H148.786V73.9279H149.462C150.308 73.9463 151.15 73.8111 151.948 73.529C152.976 73.1576 153.823 72.4048 154.312 71.4265C154.829 70.3076 155.075 69.0821 155.028 67.8501C155.002 66.2629 154.849 64.6803 154.569 63.1177C154.285 61.5287 154.136 59.9184 154.123 58.3042V58.1014C154.043 56.5743 154.445 55.0608 155.272 53.7746C156.029 52.7536 157.135 52.0463 158.379 51.787L158.744 51.6992V50.8068L158.386 50.7121C157.146 50.4333 156.042 49.7304 155.265 48.7245C154.429 47.4548 154.024 45.9496 154.11 44.4315V44.2287C154.126 42.6125 154.275 41.0003 154.555 39.4085C154.833 37.8729 154.987 36.3175 155.015 34.7572C155.029 33.9306 154.936 33.1057 154.738 32.3031C154.591 31.771 154.363 31.2647 154.062 30.8023C153.622 30.1184 152.99 29.5798 152.245 29.2541C151.348 28.8872 150.383 28.7122 149.414 28.7403H148.739V26.1577H149.658C152.319 26.1577 154.535 26.773 156.062 28.0439C156.851 28.6971 157.466 29.5356 157.852 30.4845C158.318 31.6372 158.548 32.8717 158.528 34.1149C158.481 35.8826 158.31 37.6448 158.014 39.3882C157.712 41.1989 157.538 43.0289 157.494 44.8642C157.484 45.4714 157.548 46.0775 157.683 46.6693C157.787 47.1343 157.965 47.5795 158.21 47.9876C158.631 48.6738 159.254 49.2124 159.994 49.529C161.005 49.9487 162.095 50.147 163.189 50.1104V49.6304H162.709V52.9093H163.169H163.648V49.1504H163.169C162.294 49.175 161.422 49.0398 160.595 48.7515C160.182 48.6027 159.803 48.3728 159.48 48.0755C159.078 47.6813 158.789 47.1864 158.643 46.6423C158.493 46.064 158.423 45.4682 158.433 44.871C158.479 43.0809 158.651 41.2962 158.947 39.5301C159.249 37.7421 159.423 35.9346 159.467 34.1217C159.491 32.749 159.238 31.3855 158.724 30.1127C158.051 28.4747 156.804 27.1383 155.217 26.3538C153.48 25.5393 151.576 25.1434 149.658 25.1977H147.827V29.7003H149.462C150.22 29.6803 150.975 29.7971 151.691 30.0451C152.095 30.1991 152.467 30.4285 152.785 30.7211C153.227 31.1638 153.546 31.7135 153.711 32.3166C153.941 33.1089 154.046 33.9324 154.022 34.7572C154.002 36.2632 153.855 37.7649 153.583 39.2462C153.292 40.8869 153.138 42.549 153.123 44.2152V44.4315C153.038 46.1553 153.512 47.8604 154.474 49.2924C155.381 50.4747 156.671 51.3041 158.122 51.6383L158.244 51.1718H157.764V51.3003H158.244L158.129 50.8338C156.662 51.1474 155.36 51.9865 154.468 53.1932C153.512 54.6485 153.039 56.3684 153.117 58.1082V58.3245C153.129 59.9931 153.282 61.6577 153.576 63.3003C153.848 64.8067 153.995 66.333 154.015 67.8637C154.031 68.6271 153.942 69.3891 153.752 70.1284C153.554 70.9732 153.06 71.7191 152.36 72.231C151.485 72.7696 150.467 73.0268 149.441 72.9679H147.807V77.4704H149.658C150.953 77.4864 152.244 77.3249 153.495 76.9904C155.229 76.5548 156.76 75.5355 157.832 74.1037C158.993 72.3489 159.565 70.27 159.467 68.1679C159.423 66.3751 159.249 64.5879 158.947 62.8203C158.651 61.1201 158.479 59.4006 158.433 57.6755C158.428 57.1795 158.482 56.6847 158.595 56.2017C158.754 55.4384 159.178 54.756 159.791 54.2749C160.79 53.619 161.977 53.3102 163.169 53.3961H163.648V52.9093H163.169Z" fill="#002D43"/>
</g>
</g>
<defs>
<filter id="filter0_d_505_142" x="-27" y="-7" width="304" height="841" filterUnits="userSpaceOnUse" color-interpolation-filters="sRGB">
<feFlood flood-opacity="0" result="BackgroundImageFix"/>
<feColorMatrix in="SourceAlpha" type="matrix" values="0 0 0 0 0 0 0 0 0 0 0 0 0 0 0 0 0 0 127 0" result="hardAlpha"/>
<feOffset dy="20"/>
<feGaussianBlur stdDeviation="13.5"/>
<feComposite in2="hardAlpha" operator="out"/>
<feColorMatrix type="matrix" values="0 0 0 0 0 0 0 0 0 0 0 0 0 0 0 0 0 0 0.05 0"/>
<feBlend mode="normal" in2="BackgroundImageFix" result="effect1_dropShadow_505_142"/>
<feBlend mode="normal" in="SourceGraphic" in2="effect1_dropShadow_505_142" result="shape"/>
</filter>
<filter id="filter1_d_505_142" x="-27" y="-7" width="304" height="841" filterUnits="userSpaceOnUse" color-interpolation-filters="sRGB">
<feFlood flood-opacity="0" result="BackgroundImageFix"/>
<feColorMatrix in="SourceAlpha" type="matrix" values="0 0 0 0 0 0 0 0 0 0 0 0 0 0 0 0 0 0 127 0" result="hardAlpha"/>
<feOffset dy="20"/>
<feGaussianBlur stdDeviation="13.5"/>
<feComposite in2="hardAlpha" operator="out"/>
<feColorMatrix type="matrix" values="0 0 0 0 0 0 0 0 0 0 0 0 0 0 0 0 0 0 0.05 0"/>
<feBlend mode="normal" in2="BackgroundImageFix" result="effect1_dropShadow_505_142"/>
<feBlend mode="normal" in="SourceGraphic" in2="effect1_dropShadow_505_142" result="shape"/>
</filter>
<clipPath id="clip0_505_142">
<rect width="152" height="96" fill="white" transform="translate(49 22)"/>
</clipPath>
</defs>
</svg>